<?xml version="1.0" encoding="UTF-8"?>
<svg id="Layer_1" xmlns="http://www.w3.org/2000/svg" viewBox="0 0 1831.41 3344.16">
  <g id="ภูเก็ต" data-name="ภูเก็ต">
    <path d="M249.09,2812.85c1-1,0-10,0-10l-6,1-4,2-4-7s-5-1-6-1-1-8-2-9c-1-1-6-8-6-8l-3,5,3,7-5,13,5,10-5,13,3,10v20l2,5s1,7,2,7h5c1,0,5-11,5-11l20-12s-9-15-9-17,4-17,5-18Z" fill="#e6e6e6" stroke="#262626" stroke-miterlimit="10" stroke-width="2"/>
    <polygon points="605.16 2474.78 593.16 2479.79 586.15 2474.78 575.15 2477.78 572.15 2493.79 577.15 2496.79 576.15 2511.79 589.15 2512.79 604.16 2498.79 601.16 2491.79 609.16 2480.79 605.16 2474.78" fill="#e6e6e6" stroke="#262626" stroke-miterlimit="10" stroke-width="2"/>
    <path d="M606.16,2444.78l-3-14h-19l-5,7,6,12s14,4,15,4,6-9,6-9Z" fill="#e6e6e6" stroke="#262626" stroke-miterlimit="10" stroke-width="2"/>
    <path d="M273.09,2800.85v11l10,9v5l-3,4,2,9,3,2c1,0,3-3,3-3v-23l-3-5-12-9Z" fill="#e6e6e6" stroke="#262626" stroke-miterlimit="10" stroke-width="2"/>
    <polygon points="288.1 2789.84 284.1 2795.85 284.1 2798.85 290.1 2798.85 292.1 2789.84 290.1 2787.84 288.1 2789.84" fill="#e6e6e6" stroke="#262626" stroke-miterlimit="10" stroke-width="2"/>
    <path d="M380.12,2901.87l1,14,7,18,4,2,3-7-6-11v-4l9-5,1-14s-13-3-14-3l-5,10Z" fill="#e6e6e6" stroke="#262626" stroke-miterlimit="10" stroke-width="2"/>
    <path d="M361.11,2858.86l4,1v3s3,2,4,2,1-7,1-7c0,0-5-2-6-3s-3,4-3,4Z" fill="#e6e6e6" stroke="#262626" stroke-miterlimit="10" stroke-width="2"/>
    <polygon points="213.08 2594.81 220.08 2596.81 228.09 2584.81 221.08 2569.8 213.08 2568.8 213.08 2594.81" fill="#e6e6e6" stroke="#262626" stroke-miterlimit="10" stroke-width="2"/>
    <path d="M224.09,2545.8s-9,9-9,10v7l4,1,3-6,2-12Z" fill="#e6e6e6" stroke="#262626" stroke-miterlimit="10" stroke-width="2"/>
  </g>
  <path d="M714.18,71.33l-10,59-6.01,12.01-10.99,3-2.01,12.01-8.05,8.93-.95,1.07,3.76,6.56-6.9,6.9h-10.43v6.52l-5.22,7.82-14.34-2.61-2.61,9.13-9.13,2.61-6.52-2.61v16.95l-19.56-1.3-1.3,26.08-10.43-1.3-3.91,3.91-10.43-2.61-10.27,5.14h-.01l-.3-.13h-.01l-8.96-11.53-6.52,3.91-3.95-.87h-.03s-7.76-1.73-7.76-1.73l-3.91,2.61-10.43,5.22-6.52,1.3v9.13h-15.65l-6.52-5.22-6.52-2.61v7.82s2.61,9.13,2.61,11.74-7.82,20.86-7.82,20.86l-2.61,13.04,5.22,11.74-5.22,6.52-1.3,5.22h-7.82l-10.43,16.95-9.13,2.61-3.91-15.65-10.43-6.52-9.13-23.47,7.82-15.65-.38-7.07-.93-17.71,1.3-10.43-5.22-7.82-2.61-16.95,5.22-7.82-5.22-3.91v-6.52l-7.82-9.13,2.61-6.52,10.43-13.04,7.82,1.3,2.61-11.74,6.52-10.43,6.52-3.91-11.74-18.25,10.43-7.82v-6.52l13.04-11.74-1.3-6.52,6.52-2.61-2.61-7.82,16.95-5.22-6.02-11.29h.37l5.01-13-2.61-1.67-8.4-5.33,1-10-2.01-2.01-.99-7.99-11-9.01v-8.01l4,1,31.01,14,7-3,9,7,11-8.01h10l4.99,4,13.01-28.01s12,1,13,1,7-4,7-4c0,0,9,10,9,11,0,.86,5.96.98,7.59,1,.27,0,.52.09.73.26l12.69,10.73,1,24,14,4,4.99-4.99-2-8.01,10-4,7-16,4.99-3h13l11,13,5.01,19,6,7h5.01v9.01s13,12,13.99,12,9.01-9,9.01-9l4,4Z" fill="#999" stroke="#262626" stroke-miterlimit="10" stroke-width="2"/>
  <polygon points="568.86 248.53 568.72 248.61 568.55 248.4 568.56 248.4 568.86 248.53" fill="#999" stroke="#262626" stroke-miterlimit="10" stroke-width="2"/>
  <path d="M714.76,322.93l9.13,14.34h-7.82l-16.95-5.22s-13.04,6.52-10.43,7.82,9.13,9.13,9.13,9.13l-6.52,9.13-10.43,2.61-5.22-1.3-6.52,10.43v6.52s-.09.18-.26.52c-1.1,2.18-5.32,10.54-7.05,13.14-.21.31-.38.55-.51.68-1.3,1.3-10.43-2.61-10.43-2.61l-14.34-2.61-6.52,5.22-2.16-2.16-3.05-3.05h-6.52l-4.68,3.74-1.84,1.47-10.43-5.22v-7.82l-5.22-7.82-7.82-1.3-16.95-18.25-9.13-5.22-11.74-1.3-3.91-13.04-9.13-1.3-3.91-18.25-6.52-6.52-6.52-20.86v-9.13l-1.66-18.25h1.66v-9.13l6.52-1.3,10.43-5.22,3.91-2.61,7.76,1.72h.03s3.95.89,3.95.89l6.52-3.91,8.96,11.53.17.21.14-.08h.01l10.27-5.14,10.43,2.61,3.91-3.91,10.43,1.3,1.3-26.08,19.56,1.3v-16.95l6.52,2.61,9.13-2.61,2.61-9.13,14.34,2.61,5.22-7.82v-6.52h10.43l6.9-6.9.25.44,4.99,3v4.99l-4.99,5.01,2,4,5.01,7,7.99,3.99v15.01l10.09,5.61,7.91,4.39,5.49-.91v7.82l-7.82,2.61v6.52l-15.65,6.52v9.13h6.52l9.13,6.52,1.3,6.52,9.13-3.91v14.34s-2.61,1.3-2.61,2.61,5.22,7.82,5.22,7.82l2.61,24.77-11.74,5.22Z" fill="#999" stroke="#262626" stroke-miterlimit="10" stroke-width="2"/>
  <polygon points="568.72 248.61 568.55 248.4 568.56 248.4 568.72 248.61" fill="#999" stroke="#262626" stroke-miterlimit="10" stroke-width="2"/>
  <path d="M883.21,344.38l-12,6,.99,9.01-10,10,1,30-6,7,11,11-11,16-9.01,2v12.01l-16,7.99-2,10.01-10,10,.5,1.15,5.25,12.28h0c-2.95,5.4-8.11,14.03-10.8,14.03h-11.74l-14.34,18.25,2.61,11.74s-15.65,26.08-18.25,26.08-5.22-2.61-7.82,0-10.43,13.04-10.43,13.04h-15.65l-15.65-6.52-13.04,1.3-6.52,7.82h-27.38l-.03-.57-1.28-25.5,11.74-9.13-2.61-13.04,10.43-15.65-2.61-13.04,15.65-16.95-1.3-18.25s-5.22,3.91-7.82,3.91-13.04-3.91-13.04-3.91l-10.43,3.91v-13.04l-7.82-11.74,2.61-11.74-6.52-10.43,9.13-11.74-11.23-17.63c1.73-2.61,5.96-10.97,7.05-13.14.17-.34.26-.52.26-.52v-6.52l6.52-10.43,5.22,1.3,10.43-2.61,6.52-9.13s-6.52-7.82-9.13-9.13,10.43-7.82,10.43-7.82l16.95,5.22h7.82l-9.13-14.34,11.74-5.22-2.61-24.77s-5.22-6.52-5.22-7.82,2.61-2.61,2.61-2.61v-14.34l-9.13,3.91-1.3-6.52-9.13-6.52h-6.52v-9.13l15.65-6.52v-6.52l7.82-2.61v-7.82l.51-.09,4-10.99s10-2.01,11-1c1,1,17,8.01,22,15.01,5.01-3.01,24-23.01,24-23.01l5.01-10,16,2.01,14-1,18.01,13,18.01,1,3-9.01,17,9.01-4,23-14-1,1,11-5.01,6,2.01,12.01,10.99,4.99-4.99,5.01,8.01,13-2.01,30,24,17-4,12.01Z" fill="#999" stroke="#262626" stroke-miterlimit="10" stroke-width="2"/>
  <path d="M477.45,98.66l-6.52,2.61,1.3,6.52-13.04,11.74v6.52l-10.43,7.82,11.74,18.25-6.52,3.91-6.52,10.43-2.61,11.74-7.82-1.3-10.43,13.04-2.61,6.52,7.82,9.13v6.52l5.22,3.91-5.22,7.82,2.61,16.95,5.22,7.82-1.3,10.43.93,17.71.38,7.07-7.82,15.65,9.13,23.47,10.43,6.52,3.91,15.65-6.52,6.52,2.61,23.47-6.52,6.52.74,5.98,1.86,14.88-7.82,15.65,2.61,5.22-2.61,5.22,6.52,10.43-10.43,15.65-20.86-14.34,3.91-6.52-1.3-9.13-6.52-3.91-1.3-6.52-10.43-1.3-5.22,3.91-14.34,6.52-9.13-2.61-2.61,9.13h-5.22l-7.82,7.82-1.3,10.43-6.52,9.13h-9.13l-22.17,18.25h-11.74l-6.52,15.65,2.61,7.82-2.61,7.82,19.56,13.04,1.3,15.65,6.52,6.52-1.3,20.86-3.91,7.82,1.3,5.22,7.82,1.3,7.82,29.99-2.61,3.91v9.13s-.16.07-.44.2c-.1.04-.22.09-.35.14-.07.03-.14.05-.22.09-1.21.51-3.32,1.38-5.25,2.14-.22.08-.46.17-.68.26-1.63.61-3.03,1.08-3.48,1.08-1.3,0-7.82-7.82-7.82-7.82l-2.61,9.13-14.55-1.21-1.1-.09-5.22-7.82-6.52,5.22-2.61,6.52-6.52-6.52s-3.91,3.91-5.22,3.91-7.82-5.22-7.82-5.22l-5.22-2.61-3.91,6.52,9.13,35.21,1.3,20.86-3.91,16.95,7.82,13.04-3.91,11.74,5.22,9.13-2.61,11.74-20.86,2.61-9.13,6.52-9.13-1.3-2.61-7.82-9.13-5.22,1.3-13.04-6.52-6.52v-5.22l6.52-2.61-2.61-20.86-3.91-11.74h-10.43s-7.82,5.22-9.13,6.52-14.34,0-15.65-1.3-11.74-20.86-11.74-20.86l.91-.74,13.43-10.99-1.3-20.86-9.13-5.22-5.22-5.22-2.61-7.82-13.04-10.43s2.61-6.52,2.61-7.82c0-.35,1.04-1.08,2.57-1.96,4.12-2.39,11.77-5.87,11.77-5.87l13.04,6.52,9.13-10.43,11.74-1.3,2.61-7.82,9.13-13.04-13.04-2.61-6.52,1.3-2.61-6.52-6.52-3.91-1.3-9.13,3.91-6.52-6.52-7.82v-13.04h7.82l6.52-2.61-2.61-7.82-15.65-11.74-1.3-6.52-10.43-3.91,11.74-19.56,7.82-1.3,14.34-7.82v-10.43l-15.65-9.13h-10.43l1.3-9.13-6.52-14.34,7.82-7.82-6.52-5.22-1.3-13.04,7.82-13.04s6.52-2.61,9.13-2.61,5.22-28.69,5.22-28.69c0,0,14.34-15.65,14.34-18.25v-11.74l19.56,1.3,2.61,14.34,14.34,15.65,7.82-2.61s20.86,3.91,22.17,3.91,22.17-14.34,22.17-14.34l-5.22-18.25s-11.74-7.82-13.04-9.13,9.13-19.56,9.13-19.56l-6.52-23.47s3.91-5.22,3.91-6.52v-19.56l-6.52-3.91,1.3-6.52-7.82-7.82,1.3-6.52-2.61-6.52-7.82-1.3-6.52-6.52-1.46-7.31,1.29.04,9-4s10,9,11,10c.99,1,4.99-10,4.99-10h10l19.01-14,14.99,6,14-15.01,5.4,4.24,8.61,6.77h8.01c1,0,4,5.01,4,5.01l7.99-1-.99-8.01,7-6v-28.01h3.99l-2-12,5.01-7-2.01-6,5.01-16.01h14l6-7.99,61.01,10s14-5.01,14-6.01,1.99-7.99,1.99-7.99h6.64l6.02,11.29-16.95,5.22,2.61,7.82Z" fill="#999" stroke="#262626" stroke-miterlimit="10" stroke-width="2"/>
  <path d="M289.69,324.23s-20.86,14.34-22.17,14.34-22.17-3.91-22.17-3.91l-7.82,2.61-14.34-15.65-2.61-14.34-19.56-1.3v11.74c0,2.61-14.34,18.25-14.34,18.25,0,0-2.61,28.69-5.22,28.69s-9.13,2.61-9.13,2.61l-7.82,13.04,1.3,13.04,6.52,5.22-7.82,7.82,6.52,14.34-1.3,9.13h10.43l15.65,9.13v10.43l-14.34,7.82-7.82,1.3-11.74,19.56,10.43,3.91,1.3,6.52,15.65,11.74,2.61,7.82-6.52,2.61h-7.82v13.04l6.52,7.82-3.91,6.52,1.3,9.13,6.52,3.91,2.61,6.52,6.52-1.3,13.04,2.61-9.13,13.04-2.61,7.82-11.74,1.3-9.13,10.43-13.04-6.52s-7.65,3.48-11.77,5.87c-1.53.87-2.57,1.6-2.57,1.96,0,1.3-2.61,7.82-2.61,7.82l13.04,10.43,2.61,7.82,5.22,5.22,9.13,5.22,1.3,20.86-13.43,10.99c-5.02-3.96-12.65-10.12-12.65-10.99,0-1.3-5.22-22.17-5.22-22.17l-9.13-18.25h-13.04v9.13l-6.52,6.52-14.34,2.61-9.13-2.61-5.27,3.01-7.08-10.01h-6l-5.01-15.01s4-9,14-17c1-4.99,1-10,1-10l-7-14h-5.01v-22l-16-18.01,7-12.01-4-6-13-4.99-3,3-2.01,7-7.99,6-12.01-14v-17L1.04,451.4l1.99-15.01h3.01s2,8.01,3,9c.77.77,3.91.95,5.32.99.42.01.8.26.99.64l6.69,13.38c1,1.99,6,1,6,1l2.01-3,6,.99,1,4,7.99-3v-6l18.01-3v-5.01l4-1,1.99-3,27,1v-29.01l-4.99-4.99-2.01-37-17.99-13,16-9.01,1-14.99s4.99-3.01,6-3.01,1-7,2-6c1,1,14-4.99,14-4.99l1-30.02-14-12,7-18.01-5.01-10,22.01-23-7-8.01v-7l6-6s18.01-1,19.01-1,.99-12,2-12,14-2.01,14-2.01c0,0-4-14-4-14.99s2.01-21.01,2.01-21.01l12-1,5.01,10s4.99-4.99,6-4.99,14,13,15.01,13,6,1,6,1c0,0,.99,12,2,12h6l11-6,31.72.96,1.46,7.31,6.52,6.52,7.82,1.3,2.61,6.52-1.3,6.52,7.82,7.82-1.3,6.52,6.52,3.91v19.56c0,1.3-3.91,6.52-3.91,6.52l6.52,23.47s-10.43,18.25-9.13,19.56,13.04,9.13,13.04,9.13l5.22,18.25Z" fill="#999" stroke="#262626" stroke-miterlimit="10" stroke-width="2"/>
  <path d="M849.2,533.42l-6,16,6,12-14,17.02-.99,10-21.01,16,2,11-6,3,1,10-6.01,3,.09.52.91,5.48.64.13-5.02,10.04h-11.74l-3.91-2.61-7.82,2.61v7.82l-14.34,10.43-3.91,10.43-32.6,18.25-5.22,15.65-19.56,3.91-6.52-3.91-7.82,1.3h-9.13l-11.74,9.13h-5.22l-7.82,2.61-5.22,24.77-9.13,11.74-18.25,5.22-24.77,2.61h-13.04v-10.43l-5.22-7.82,3.91-7.82,7.82-5.22-1.3-9.13-.43-4.3-.87-8.74,3.91-3.91v-10.43l-16.95-10.43v-19.56l7.82-9.13-1.3-15.65-11.74-13.04,1.97-4.93.64-1.59h9.13l5.22-3.91v-7.82l9.13-1.3s.03.01.09.03h0c.08.04.18.09.34.14.08.03.16.07.25.09.08.04.17.08.27.12.08.03.17.07.26.09.08.04.16.07.25.09.56.22,1.24.48,1.96.74.12.04.22.08.34.12.22.08.46.17.68.25.23.07.46.14.66.22.17.05.35.12.51.17.25.08.5.16.73.22.13.04.26.08.39.12.48.13.87.21,1.1.21,1.3,0,14.34-5.22,14.34-5.22l23.47-20.86,9.13-2.61,10.43,15.65,7.82-6.52-3.91-14.34,13.01-7.09.03.57h27.38l6.52-7.82,13.04-1.3,15.65,6.52h15.65s7.82-10.43,10.43-13.04,5.22,0,7.82,0,18.25-26.08,18.25-26.08l-2.61-11.74,14.34-18.25h11.74c2.69,0,7.85-8.63,10.8-14.02l.25.56,21.01,7.99-7,20,4,9.01,6,.99-1,6.01Z" fill="#999" stroke="#262626" stroke-miterlimit="10" stroke-width="2"/>
  <path d="M695.2,510.69l-10.43,15.65,2.61,13.04-11.74,9.13,1.28,25.5-13.01,7.09,3.91,14.34-7.82,6.52-10.43-15.65-9.13,2.61-23.47,20.86s-13.04,5.22-14.34,5.22c-.22,0-.61-.08-1.1-.21-.13-.04-.26-.08-.39-.12-.23-.07-.48-.14-.73-.22-.16-.05-.34-.12-.51-.17-.21-.08-.43-.16-.66-.22-.22-.08-.46-.17-.68-.25-.12-.04-.22-.08-.34-.12-.72-.26-1.4-.52-1.96-.74-.09-.03-.17-.05-.25-.09-.09-.03-.18-.07-.26-.09-.1-.04-.2-.08-.27-.12-.09-.03-.17-.07-.25-.09-.16-.05-.26-.1-.34-.13h0c-.07-.03-.09-.04-.09-.04l-9.13,1.3v7.82l-5.22,3.91h-9.13l-.64,1.59-5.88-4.2-19.56-1.3-20.86,19.56-9.13-16.95-15.65-5.22-14.34,3.91-15.73,17.81h0s-3.83,4.36-3.83,4.36l-14.34,1.3-1.53-7.61-2.39-11.94s24.77-24.77,24.77-26.08,1.3-3.91,1.3-3.91l23.47-19.56-1.3-7.82,7.82-5.22,16.95,1.3,7.82-9.13,15.65-28.69,15.65-16.95h7.82l10.43-22.17,13.04-6.52v-10.43l5.22-5.22,3.91-19.56,13.04-2.61v-9.13l-3.91-6.52,3.91-7.82-3.91-14.34,3.91-9.13.53-7.99,4.68-3.74h6.52l3.05,3.05,2.16,2.16,6.52-5.22,14.34,2.61s9.13,3.91,10.43,2.61c.13-.13.3-.37.51-.68l11.23,17.63-9.13,11.74,6.52,10.43-2.61,11.74,7.82,11.74v13.04l10.43-3.91s10.43,3.91,13.04,3.91,7.82-3.91,7.82-3.91l1.3,18.25-15.65,16.95,2.61,13.04Z" fill="#999" stroke="#262626" stroke-miterlimit="10" stroke-width="2"/>
  <polygon points="568.86 248.53 568.72 248.61 568.55 248.4 568.56 248.4 568.86 248.53" fill="#999" stroke="#262626" stroke-miterlimit="10" stroke-width="2"/>
  <path d="M613.05,397.25l-3.91,9.13,3.91,14.34-3.91,7.82,3.91,6.52v9.13l-13.04,2.61-3.91,19.56-5.22,5.22v10.43l-13.04,6.52-10.43,22.17h-7.82l-15.65,16.95-15.65,28.69-7.82,9.13-16.95-1.3-7.82,5.22,1.3,7.82-23.47,19.56s-1.3,2.61-1.3,3.91-24.77,26.08-24.77,26.08l2.39,11.94,1.53,7.61,14.34-1.3,3.83-4.34,1.38,8.25s-3.91,13.04-3.91,14.34v7.82l-5.22,10.43,1.3,6.52-5.22,13.04,5.22,7.82,1.3,11.74s5.22,3.91,6.52,5.22c1.3,1.3-2.61,14.34-2.61,14.34l-1.3,7.82-13.04,13.04-14.34-13.04-1.64-.7-7.48-3.21-5.22-20.86v-7.82h-9.13l-9.13,14.34h-9.13l-5.22-6.52h-9.13l-22.17-23.47h-9.13l-3.83-13.4-1.38-4.85v-7.82l-6.52-6.52,3.91-9.13,18.25,1.3,9.13,7.82,5.22-3.91,1.3-11.74,1.19-2.02,7.94-13.63,6.52-5.22-2.61-6.52,1.3-5.22h10.43v-6.52l2.61-5.22-7.82-10.43h-7.82l-1.3-9.13-5.22-3.91,2.61-9.13s-2.61-11.74-3.91-13.04-3.91-28.69-3.91-28.69l-9.13-13.04,7.82-3.91,6.52-3.91,7.82,2.61,1.3-6.52,7.82-5.22,1.3-9.13,18.25-22.17,2.61-10.43,11.74,2.61,5.22-3.91-2.27-7.68,8.79-13.18-6.52-10.43,2.61-5.22-2.61-5.22,7.82-15.65-1.86-14.88-.74-5.98,6.52-6.52-2.61-23.47,6.52-6.52,9.13-2.61,10.43-16.95h7.82l1.3-5.22,5.22-6.52-5.22-11.74,2.61-13.04s7.82-18.25,7.82-20.86-2.61-11.74-2.61-11.74v-7.82l6.52,2.61,6.52,5.22h13.99l1.66,18.25v9.13l6.52,20.86,6.52,6.52,3.91,18.25,9.13,1.3,3.91,13.04,11.74,1.3,9.13,5.22,16.95,18.25,7.82,1.3,5.22,7.82v7.82l10.43,5.22,1.84-1.47-.53,7.99Z" fill="#999" stroke="#262626" stroke-miterlimit="10" stroke-width="2"/>
  <path d="M439.63,459.84l-5.22,3.91-11.74-2.61-2.61,10.43-18.25,22.17-1.3,9.13-7.82,5.22-1.3,6.52-7.82-2.61-6.52,3.91-7.82,3.91,9.13,13.04s2.61,27.38,3.91,28.69,3.91,13.04,3.91,13.04l-2.61,9.13,5.22,3.91,1.3,9.13h7.82l7.82,10.43-2.61,5.22v6.52h-10.43l-1.3,5.22,2.61,6.52-6.52,5.22-7.94,13.63-1.19,2.02-1.3,11.74-5.22,3.91-9.13-7.82-18.25-1.3-3.91,9.13,6.52,6.52v7.82l1.38,4.85-7.9,9.49-10.43-5.22s-18.25,9.13-19.56,10.43c-1.3,1.3-13.04,5.22-13.04,5.22l3.91-16.95-3.91-18.25v-15.65l3.91-3.91h7.82l1.3-6.52-13.04-16.95,1.1-3.82,14.55,1.21,2.61-9.13s6.52,7.82,7.82,7.82c.46,0,1.85-.47,3.48-1.08.22-.09.46-.18.68-.26,1.93-.76,4.04-1.63,5.25-2.14.08-.04.16-.07.22-.09.13-.05.25-.1.35-.14.29-.13.44-.2.44-.2v-9.13l2.61-3.91-7.82-29.99-7.82-1.3-1.3-5.22,3.91-7.82,1.3-20.86-6.52-6.52-1.3-15.65-19.56-13.04,2.61-7.82-2.61-7.82,6.52-15.65h11.74l22.17-18.25h9.13l6.52-9.13,1.3-10.43,7.82-7.82h5.22l2.61-9.13,9.13,2.61,14.34-6.52,5.22-3.91,10.43,1.3,1.3,6.52,6.52,3.91,1.3,9.13-3.91,6.52,20.86,14.34,1.64-2.46,2.27,7.68Z" fill="#999" stroke="#262626" stroke-miterlimit="10" stroke-width="2"/>
  <path d="M474.84,827.54l-.68,1.1-5.84,9.34h-15.65l-1.3,13.04h-14.34l-5.22,7.82,2.61,9.13-13.04,24.77v22.17h-10.43l-18.25,15.65h-16.95l-6.52-5.22-3.91,2.61v5.22l6.52,7.82s-1.3,7.82-1.3,9.13,9.13,5.22,9.13,5.22l-2.61,22.17,7.82,13.04-7.82,15.65,7.82,2.61,7.82,15.65s-9.13,20.86-9.13,22.17,3.91,9.13,3.91,9.13l-.37,5.45-.86,13.01-.08,1.1,11.74,10.43v18.25l-7.82,7.82v18.25l-11.74,6.52,1.3,7.82,5.22,9.13-5.22,7.82,2.61,16.95-6.52,10.43,1.3,11.74-6.52,9.13-2.61,24.77-11.74-22.17-13.04-3.91-2.61-10.43-26.08-27.38v-10.43c0-.22-.3-.55-.8-.95-2.44-1.97-9.64-5.57-9.64-5.57l1.3-6.52-15.65-22.17h-9.13l-5.22-6.52-6.57-1.32-1.68-9.47.76-2.2,13.25-38.8h-4.99l-2.01-10,6-13-10.99-14,6-8.01,7,9,2-6,8.01-1v-10l8.01-6,20,2.01,4,6,9-7,1-22.01,13-7,1-10.99,4.99-3.01-6-6,2-9-9-9.01-13,1-9.01,17-9-1-7,19.01-7-1-3-18.01-4-2,3-10-6-1.99,6-11-17.99-22.01,1.99-9-8.01-11h-9l1-11-10-6-1-9,8.01-10-1-11,7.99-9.01v-7.99l-10.99-8.01-1-9-13-13h-17l-9.01-10.01-.99-12-40.02-39.01v-17h-6l-9-9,.99-6-13-14h-6l-11-9.01-.99-7-32.01-32,1-7-4.93-6.99,5.27-3.01,9.13,2.61,14.34-2.61,6.52-6.52v-9.13h13.04l9.13,18.25s5.22,20.86,5.22,22.17c0,.87,7.63,7.03,12.65,10.99l-.91.74s10.43,19.56,11.74,20.86,14.34,2.61,15.65,1.3,9.13-6.52,9.13-6.52h10.43l3.91,11.74,2.61,20.86-6.52,2.61v5.22l6.52,6.52-1.3,13.04,9.13,5.22,2.61,7.82,9.13,1.3,9.13-6.52,20.86-2.61,2.61-11.74-5.22-9.13,3.91-11.74-7.82-13.04,3.91-16.95-1.3-20.86-9.13-35.21,3.91-6.52,5.22,2.61s6.52,5.22,7.82,5.22,5.22-3.91,5.22-3.91l6.52,6.52,2.61-6.52,6.52-5.22,5.22,7.82,1.1.09-1.1,3.82,13.04,16.95-1.3,6.52h-7.82l-3.91,3.91v15.65l3.91,18.25-3.91,16.95s11.74-3.91,13.04-5.22c1.3-1.3,19.56-10.43,19.56-10.43l10.43,5.22,7.9-9.49,3.83,13.4h9.13l22.17,23.47h9.13l5.22,6.52h9.13l9.13-14.34h9.13v7.82l5.22,20.86,7.48,3.21-.96,28.09,2.61,11.74h7.82l7.82,3.91-2.61,9.13,10.43,13.04h5.22l1.98,4.35,4.54,9.99Z" fill="#ccc" stroke="#262626" stroke-miterlimit="10" stroke-width="2"/>
  <path d="M611.75,814.5v15.65s-6.52,6.52-9.13,5.22-13.04-1.3-13.04-1.3l-1.3,5.22-11.74,2.61v9.13l-10.38,5.19-5.27,2.63-2.5,15.03-.1.61s-3.91-2.61-5.22-2.61-15.65,9.13-15.65,9.13l-6.52-13.04-7.82,5.22-19.56-9.13-10.43-13.04v-9.13l-5.22-1.3-2.61,6.52-2.61,2.61-7.82-20.86-.68-.21.68-1.1-4.54-9.99-1.98-4.35h-5.22l-10.43-13.04,2.61-9.13-7.82-3.91h-7.82l-2.61-11.74.96-28.09,1.64.7,14.34,13.04,13.04-13.04,1.3-7.82s3.91-13.04,2.61-14.34c-1.3-1.3-6.52-5.22-6.52-5.22l-1.3-11.74-5.22-7.82,5.22-13.04-1.3-6.52,5.22-10.43v-7.82c0-1.3,3.91-14.34,3.91-14.34l-1.38-8.25h0s15.73-17.82,15.73-17.82l14.34-3.91,15.65,5.22,9.13,16.95,20.86-19.56,19.56,1.3,5.88,4.2-1.97,4.93,11.74,13.04,1.3,15.65-7.82,9.13v19.56l16.95,10.43v10.43l-3.91,3.91.87,8.74.43,4.3,1.3,9.13-7.82,5.22-3.91,7.82,5.22,7.82v9.78l-6.52,3.26v7.82l5.22,6.52,2.61,5.22,7.82,6.52v6.52c0,1.3,19.56,11.74,19.56,11.74Z" fill="#f2f2f2" stroke="#262626" stroke-miterlimit="10" stroke-width="2"/>
  <path d="M1504.92,571.98l-9.13,6.52s5.22,14.34,5.22,18.25-7.82,13.04-7.82,13.04c0,0-13.04-14.34-14.34-14.34s-10.43,14.34-10.43,14.34l3.91,9.13-3.43,4.58-4.39,5.85-11.74-5.22-3.91-13.04-10.43-7.82-15.65,6.52-8.46-12.7-4.58-6.86-11.74-1.3-2.61-3.91-7.82-2.61-2.61-10.43-19.56-11.74-6.52,2.61,1.3,14.34h-9.13l-3.91,6.52-10.43-5.22v-9.13l-4.15-.46-7.59-.85-6.52-19.56,9.13-7.82-1.3-9.13-11.74-13.04-10.43-2.61,11.74-9.13-.73-.3.17-.07-2.48-2.69-9.52-10.33,12-16,24-4,14,7,26,1s19.01,16,22.01,16,31.01,2.01,31.01,2.01c0,0,1,12,4,12s23-10,23-10l26,24s-2,13,11,28.01c1.76,2.03,3.46,3.99,5.06,5.85,10.22,11.92,16.95,20.15,16.95,20.15,0,0,.35,1.07.95,2.82l-14.37-10.26Z" fill="gray" stroke="#262626" stroke-miterlimit="10" stroke-width="2"/>
  <path d="M1339.48,610.08c-.65,1.83-1.49,3.73-2.16,4.52l2.16-4.52Z" fill="gray" stroke="#262626" stroke-miterlimit="10" stroke-width="2"/>
  <path d="M1036.82,821.02l7.82,13.04-16.95,10.43h-10.43s-4.22,2.46-9.69,5.57c-.59.34-1.17.68-1.79,1.02-.65.38-1.33.76-2.01,1.13-.23.14-.47.27-.7.4-.17.1-.34.2-.51.29-.59.33-1.17.65-1.76.98-.09.07-.18.12-.29.17-.51.29-1.02.56-1.53.85-.39.22-.78.44-1.17.65-.12.07-.23.13-.35.2-.76.42-1.5.82-2.23,1.23-.12.07-.23.12-.34.18-.33.17-.64.35-.95.51-.07.04-.12.08-.18.09-.27.16-.53.3-.81.44-4.86,2.62-8.75,4.55-9.6,4.55-.14,0-.31.01-.51.03-3.23.26-12.61,2.58-13.83,2.58-1.3,0-6.52-6.52-6.52-6.52l2.61-9.13s-5.22-5.22-5.22-6.52-1.3-6.52-1.3-6.52l1.3-9.13v-3.91l-3.91-1.3-1.3-14.34-3.91-9.13-6.52,1.3-1.3,9.13-10.43,3.91-9.13-7.82v-9.13l-11.74-6.52v-7.82l-3.91-7.82-10.43-6.52-11.74,2.61-16.95,15.65-5.22-1.3-2.61,9.13-6.52-2.61-19.56,11.74-2.61,26.08-9.13,3.91-7.82-9.13,3.91-3.91,1.3-36.51,5.22-5.22-1.3-10.43,5.22-6.52.1-.31,2.5-7.51-5.22-10.43s-10.43-1.3-14.34-3.91-6.52-9.13-6.52-9.13h-16.95v-24.77l-5.22-2.61-9.13,2.61-2.61-6.52,9.13-9.13-2.61-9.13,7.82-6.52,9.13,5.22,5.72-2.86-.13.4h9.01l10.99,14.99h9.01l2,6.01h7l3,4.99,1.03-.34,1.97-.65,1-8.01,3-1,1-6s7-1.99,8.01-1.99,17-21.01,17-21.01l.99-7h6.01l10.99-10,5.01.99,17-16,2,8.01,5.01-10s10,0,11-1c.99-1-4-10-4-10l6-11,3,5.01,8.01-11,22-3,12.01-38.01,8.59,4.3,11.41,5.7,9-1,11-18.01,16.01-10v-10.99l9-4h6.51l.72,12.96-10.43,5.22v16.95l1.21.35-5.12,8.78v7.82l-5.22,5.22,7.82,23.47-2.61,18.25-5.22,10.43,1.53,8.15,2.39,12.71,7.82,1.3.99,1.58,12.05,19.28v15.65l-14.34,9.13-15.65-1.3-1.3,9.13,6.52,11.74-2.61,7.82-5.22,3.91,20.86,22.17-2.61,6.52-5.22-5.22-5.22,5.22,5.22,5.22-1.3,6.52,14.34,9.13v9.13l2.35,1.88,10.69,8.55-23.47,13.04-3.91,3.91Z" fill="gray" stroke="#262626" stroke-miterlimit="10" stroke-width="2"/>
  <path d="M1340.63,605.88c0,.56-.48,2.35-1.15,4.2l-2.16,4.52c-.22.26-.42.4-.6.4-1.3,0-6.52-6.52-9.13-5.22s-9.13,9.13-9.13,9.13l-16.95-16.95-13.04,7.82s-2.61,7.82-6.52,9.13-16.95-16.95-16.95-16.95l-13.04,1.3-3.91-3.91-2.61,13.04-3.91,6.52-13.04-13.04-9.13,5.22-6.52,11.74,5.22,6.52-5.22,19.56h-7.82l-5.22,14.34-14.34,6.52-5.22-3.91s-7.82,3.91-9.13,3.91-13.04-5.22-13.04-5.22l5.22-15.65-15.65-13.04-16.95-1.3-5.22-15.65-10.43-7.82v-9.13l-20.86-9.13-14.34-18.25-16.95,2.61-11.74-13.04-7.91-2.26-1.21-.35v-16.95l10.43-5.22-.72-12.96h3.49l1.99,3,11,2v11l1.21,1.07,23.8,20.94,13,2,20,17,38.01,5.01v12l-7,14h10l9.01,9,6-4.99-4-8.01,10-4.99,8.01-5.01,3-8.01,38.01-17,14.99,8.01,13.01-10v-20l16-17,4.99-20,28.84-9.94.73.3-11.74,9.13,10.43,2.61,11.74,13.04,1.3,9.13-9.13,7.82,6.52,19.56,7.59.85,4.15.46v9.13l1.02.51-1.02,3.4s3.91,22.17,3.91,23.47Z" fill="gray" stroke="#262626" stroke-miterlimit="10" stroke-width="2"/>
  <path d="M1396.7,784.51l-2.61,18.25-.48-.65-3.43-4.56-5.22-9.13-14.34-1.3-9.13,11.74,2.61,7.82-3.91,19.56-9.13,18.25-7.82,9.13-3.91-16.95-5.22-5.22-9.13-1.3-14.79-4.93-.86-.29-5.22-5.22-5.22-1.3-3.91,2.61h-6.52l-7.82-2.61-6.52,2.61-2.43,8.5-.18.63-33.9,16.95-9.13-2.61-6.52-7.82-5.22,2.61-6.52-2.61-1.3-15.65,1.3-6.52-5.22-7.82-10.43-6.52-10.43-9.13-5.22,11.74-1.3,9.13-.57-.3-18.98-10.13s-13.04-14.34-14.34-15.65c-.16-.16-.3-.57-.43-1.16-.03-.14-.07-.3-.09-.47-.18-1.1-.33-2.62-.44-4.32-.03-.33-.04-.67-.05-1-.01-.17-.03-.35-.04-.53,0-.22-.01-.44-.03-.65-.03-.56-.05-1.12-.07-1.68-.07-1.62-.09-3.22-.12-4.58-.01-.65-.03-1.25-.03-1.77-.01-1.28-.01-2.09-.01-2.09l2.61-10.43v-7.82s-7.82-6.52-9.13-6.52-10.43-1.3-10.43-1.3l-1.3-15.65s-23.47-44.33-24.77-45.64,0-16.95,0-16.95v-10.43h-7.82c-1.3,0-2.61,3.91-2.61,3.91h-14.34c-1.3,0-11.74-2.61-11.74-2.61l-3.91,6.52-13.35-1.03-.99-1.58-7.82-1.3-2.39-12.71-1.53-8.15,5.22-10.43,2.61-18.25-7.82-23.47,5.22-5.22v-7.82l5.12-8.78,7.91,2.26,11.74,13.04,16.95-2.61,14.34,18.25,20.86,9.13v9.13l10.43,7.82,5.22,15.65,16.95,1.3,15.65,13.04-5.22,15.65s11.74,5.22,13.04,5.22,9.13-3.91,9.13-3.91l5.22,3.91,14.34-6.52,5.22-14.34h7.82l5.22-19.56-5.22-6.52,6.52-11.74,9.13-5.22,13.04,13.04,3.91-6.52,2.61-13.04,3.91,3.91,13.04-1.3s13.04,18.25,16.95,16.95,6.52-9.13,6.52-9.13l13.04-7.82,16.95,16.95s6.52-7.82,9.13-9.13,7.82,5.22,9.13,5.22c.18,0,.38-.14.6-.4l-5.82,12.14,9.13,13.04v26.08l-2.61,6.52-9.13,1.3-15.65,16.95-2.61,16.95,5.22,9.13-2.61,5.22-6.52,15.65,5.22,9.13,11.74,1.3,5.4,3.6h.01l2.41,1.62,15.65,5.22,5.22-3.91,19.56,14.34,9.13-1.3,9.13,14.34,6.52,2.61Z" fill="gray" stroke="#262626" stroke-miterlimit="10" stroke-width="2"/>
  <path d="M1564.9,759.74l-10.43,10.43,5.22,7.82-7.82,6.52-3.91,9.13,7.82,6.52-1.3,6.52-3.94,2.15-10.41,5.67-1.3,7.82-13.04,9.13-1.3,2.61-14.34,2.61-5.22-1.3-6.52-1.3-2.61,2.61,1.3,7.82-9.13,6.52-6.52-7.82h-7.82l-13.04,7.82v9.13l-24.77-14.34-2.61-6.52-9.13-1.3-1.3-16.95-7.82-7.82h-5.22l-1.3-6.52-2.61-5.22-11.74,2.61-.48-1.96.48.65,2.61-18.25-6.52-2.61-9.13-14.34-9.13,1.3-19.56-14.34-5.22,3.91-15.65-5.22-2.41-1.62h-.01l-5.4-3.6-11.74-1.3-5.22-9.13,6.52-15.65,2.61-5.22-5.22-9.13,2.61-16.95,15.65-16.95,9.13-1.3,2.61-6.52v-26.08l-9.13-13.04,5.82-12.14,2.16-4.52c.67-1.85,1.15-3.64,1.15-4.2,0-1.3-3.91-23.47-3.91-23.47l1.02-3.4,9.41,4.71,3.91-6.52h9.13l-1.3-14.34,6.52-2.61,19.56,11.74,2.61,10.43,7.82,2.61,2.61,3.91,11.74,1.3,4.58,6.86,8.46,12.7,15.65-6.52,10.43,7.82,3.91,13.04,11.74,5.22,4.39-5.85,11.25,7.16,6.52,11.74v10.43l-1.3,5.22h-6.52v9.13l3.91,9.13-5.22,3.91v9.13l-3.91,7.82,9.13,19.56,7.82-1.3,6.52,2.61,6.52-1.3,5.22-7.82s6.52,3.91,9.13,3.91,14.34-3.91,14.34-3.91l31.29,1.3-3.91,11.74,3.91,6.52-3.91,14.34,5.22,5.22v11.74Z" fill="gray" stroke="#262626" stroke-miterlimit="10" stroke-width="2"/>
  <path d="M1647.25,771.69l-16.9,35.78.6,2.79,7.41,34.21-7,6,.17.57-4.04-1.34-5.22,6.52-9.13-1.3-6.52-15.65h-15.65s-9.13,7.82-11.74,7.82-7.82-7.82-7.82-7.82l-10.43-2.61-9.13,3.91-9.13,5.22-13.04-3.91-4.15-9.96.23-.47,13.04-9.13,1.3-7.82,10.41-5.67,3.94-2.15,1.3-6.52-7.82-6.52,3.91-9.13,7.82-6.52-5.22-7.82,10.43-10.43v-11.74l-5.22-5.22,3.91-14.34-3.91-6.52,3.91-11.74-31.29-1.3s-11.74,3.91-14.34,3.91-9.13-3.91-9.13-3.91l-5.22,7.82-6.52,1.3-6.52-2.61-7.82,1.3-9.13-19.56,3.91-7.82v-9.13l5.22-3.91-3.91-9.13v-9.13h6.52l1.3-5.22v-10.43l-6.52-11.74-11.25-7.16,3.43-4.58-3.91-9.13s9.13-14.34,10.43-14.34,14.34,14.34,14.34,14.34c0,0,7.82-9.13,7.82-13.04s-5.22-18.25-5.22-18.25l9.13-6.52,14.37,10.26c2.71,7.95,10.41,30.02,12.05,29.19,2-1,18.01,9,18.01,9l23,36.01,54.01,33s17,24,19.01,26c1.92,1.93,2,51.8,2,55.77,0,.17-.04.33-.1.48Z" fill="gray" stroke="#262626" stroke-miterlimit="10" stroke-width="2"/>
  <path d="M1685.46,975.24l-5.82,4.85h-6.52l-7.82,6.52s-1.68,1.07-3.91,2.53c-2.62,1.75-6,4.03-8.19,5.72-.13.1-.26.2-.38.29-.98.78-1.66,1.41-1.83,1.75-.03.05-.04.1-.04.14,0,.33-1.06.33-2.65.14h-.01c-4.77-.56-14.29-2.75-14.29-2.75l-11.74-5.22-5.22-6.52-5.22,6.52-9.13-3.91-9.13-9.13-2.61-9.13h-7.82l-.53-.7-3.38-4.51-15.65-2.61h-7.82l-7.82,5.22-.95-.31-6.87-2.29,1.3-18.25-5.22-14.34-5.22,6.52-6.52,3.91-.21-.61-2.4-7.21v-14.34l-11.74-18.25v-11.74l-9.13-14.34v-9.13l-13.04-9.13v-3.91l9.13-6.52-1.3-7.82,2.61-2.61,6.52,1.3,5.22,1.3,14.34-2.61,1.07-2.14,4.15,9.96,13.04,3.91,9.13-5.22,9.13-3.91,10.43,2.61s5.22,7.82,7.82,7.82,11.74-7.82,11.74-7.82h15.65l6.52,15.65,9.13,1.3,5.22-6.52,4.04,1.34,7.82,26.43-7,27v11l21.01,18.01,12.01,25,9.1,7.59,10.99,9.17Z" fill="gray" stroke="#262626" stroke-miterlimit="10" stroke-width="2"/>
  <path d="M1178.94,819.72s-18.25,41.72-19.56,41.72-22.17-9.13-22.17-9.13l-13.04,2.61-7.82-3.91-11.74,1.3-2.61-10.43-5.22-6.52-11.74-1.3-10.43,7.82-22.17-7.82h-7.82l-7.82-13.04,3.91-3.91,23.47-13.04-10.69-8.55-2.35-1.88v-9.13l-14.34-9.13,1.3-6.52-5.22-5.22,5.22-5.22,5.22,5.22,2.61-6.52-20.86-22.17,5.22-3.91,2.61-7.82-6.52-11.74,1.3-9.13,15.65,1.3,14.34-9.13v-15.65l-12.05-19.28,13.35,1.03,3.91-6.52s10.43,2.61,11.74,2.61h14.34s1.3-3.91,2.61-3.91h7.82v10.43s-1.3,15.65,0,16.95,24.77,45.64,24.77,45.64l1.3,15.65s9.13,1.3,10.43,1.3,9.13,6.52,9.13,6.52v7.82l-2.61,10.43s0,.81.01,2.09c0,.52.01,1.12.03,1.77.03,1.36.05,2.96.12,4.58.01.56.04,1.12.07,1.68.01.21.03.43.03.65.01.18.03.37.04.53.01.34.03.68.05,1,.12,1.7.26,3.22.44,4.32.03.17.07.33.09.47.13.59.27,1,.43,1.16,1.3,1.3,14.34,15.65,14.34,15.65l18.98,10.13,1.88,8.12Z" fill="gray" stroke="#262626" stroke-miterlimit="10" stroke-width="2"/>
  <path d="M832.11,753.22l-2.5,7.51-.1.31-5.22,6.52,1.3,10.43-5.22,5.22-1.3,36.51-3.91,3.91v13.04l-11.74,6.52v6.52l-15.65,7.82v7.82l9.13,16.95-15.65,5.22-6.52,10.43v10.43l2.61,5.22-12.93,16.96-7.93,10.42-9.13,1.3-2.61,5.22-2.61,9.13-8.75,6.25-.38.27-7.82-9.13-1.3-7.82-10.43-11.74,2.61-24.77-3.91-5.22-5.22,2.61-6.52-1.3-3.91,9.13s-13.04,7.82-14.34,7.82-3.91-9.13-3.91-9.13l-6.52-2.61-9.13,6.52-33.9,3.91-1.3-2.61,10.43-13.04v-7.82l-3.91-5.22-3.91,6.52-5.22,5.22-6.52-7.82-6.52-1.3s-10.43,10.43-10.43,11.74c0,.85-7.82.59-13.23.3-2.84-.14-5.02-.3-5.02-.3l-14.34-6.52-3.16-8.15-7.17-18.54,2.5-15.03,5.27-2.63,10.38-5.19v-9.13l11.74-2.61,1.3-5.22s10.43,0,13.04,1.3,9.13-5.22,9.13-5.22v-15.65s-19.56-10.43-19.56-11.74v-6.52l-7.82-6.52-2.61-5.22-5.22-6.52v-7.82l6.52-3.26v.65h13.04l24.77-2.61,18.25-5.22,9.13-11.74,5.22-24.77,7.82-2.61h5.22l11.74-9.13h9.13l7.82-1.3,6.52,3.91,19.56-3.91,5.22-15.65,32.6-18.25,3.91-10.43,14.34-10.43v-7.82l7.82-2.61,3.91,2.61h11.74l5.02-10.04,4.37.87v9l-8.88,28.61-5.72,2.86-9.13-5.22-7.82,6.52,2.61,9.13-9.13,9.13,2.61,6.52,9.13-2.61,5.22,2.61v24.77h16.95s2.61,6.52,6.52,9.13,14.34,3.91,14.34,3.91l5.22,10.43Z" fill="#f2f2f2" stroke="#262626" stroke-miterlimit="10" stroke-width="2"/>
  <polygon points="1524.27 939.06 1523.17 940.98 1506.22 938.37 1480.14 948.8 1477.54 938.37 1472.32 937.07 1454.07 940.98 1443.64 931.85 1430.6 930.55 1403.21 950.11 1407.13 957.93 1414.95 970.97 1412.34 987.92 1396.7 987.92 1392.91 993.21 1390.18 997.05 1383.66 991.83 1374.53 994.44 1368.01 989.22 1360.19 994.44 1351.06 991.83 1338.02 981.4 1339.32 973.58 1327.59 968.36 1327.59 957.93 1315.85 955.32 1313.25 947.5 1300.21 951.41 1293.69 955.32 1287.17 955.32 1287.17 947.5 1291.08 938.37 1287.17 930.55 1288.47 917.51 1287.17 907.08 1291.08 894.04 1283.56 891.53 1283.26 891.43 1282.47 876.59 1281.95 866.66 1288.47 858.83 1288.47 843.19 1284.56 840.58 1281.95 847.1 1272.83 851.01 1274.13 843.19 1276.74 834.06 1271.7 829.52 1274.13 821.02 1280.65 818.41 1288.47 821.02 1294.99 821.02 1298.9 818.41 1304.12 819.72 1309.33 824.93 1310.19 825.22 1324.98 830.15 1334.11 831.45 1339.32 836.67 1343.24 853.62 1351.06 844.49 1360.19 826.24 1364.1 806.68 1361.49 798.85 1370.62 787.12 1384.96 788.42 1390.18 797.55 1393.61 802.11 1394.09 804.07 1405.82 801.46 1408.43 806.68 1409.73 813.2 1414.95 813.2 1422.77 821.02 1424.08 837.97 1433.2 839.27 1435.81 845.79 1460.59 860.14 1460.59 851.01 1473.63 843.19 1481.45 843.19 1487.97 851.01 1487.97 854.92 1501.01 864.05 1501.01 873.18 1510.13 887.52 1510.13 899.25 1521.87 917.51 1521.87 931.85 1524.27 939.06" fill="gray" stroke="#262626" stroke-miterlimit="10" stroke-width="2"/>
  <path d="M1288.47,858.83l-6.52,7.82.52,9.94.78,14.84.3.1-1.6,6.42-7.82,14.34s-7.82,10.43-9.13,10.43-7.82,1.3-7.82,1.3l-2.61,11.74-6.52,5.22-6.52-6.52-5.22-1.3-5.22,7.82,2.61,9.13-5.22,14.34-13.04,11.74v26.08l5.22,7.82-3.91,13.04,14.34,19.56-5.22,13.04,7.82,11.74v20.86l-.52.08-8.61,1.23-3.29,25.18-.63,4.81s-13.04,5.22-14.34,3.91c-.82-.82-4.69-3.68-7.48-5.71-1.67-1.2-2.95-2.11-2.95-2.11h-9.13l-2.61-9.13-7.82-5.22h-10.43l-5.22,3.91-14.34-1.3-6.52-3.91-6.52,5.22-15.65,3.91-2.61-6.52-5.22-2.61-6.91-18.12-3.52-9.26,10.43-18.25,2.62-10.46,1.29-5.19-6.52-6.52h-5.22l-9.13-5.22-1.3-6.52s13.04-19.56,14.34-20.86,15.65-18.25,15.65-18.25l7.82-32.6-13.04-13.04h-7.82l-6.52-2.61-13.04,2.61-16.95-13.04-26.08,2.61-13.04-7.82-1.3-7.82-7.82-5.22-6.52-13.04-9.13,1.3-14.34-5.22-18.25,3.91-1.3-6.52.74-1.12,5.88-8.81,1.2-1.8.8-10.41c.2-.01.37-.03.51-.03.85,0,4.73-1.93,9.6-4.55.26-.13.53-.29.81-.44.07-.01.12-.05.18-.09.31-.16.63-.34.95-.51.1-.07.22-.12.34-.18.73-.4,1.47-.81,2.23-1.23.12-.07.23-.13.35-.2.39-.21.78-.43,1.17-.65.51-.29,1.02-.56,1.53-.85.1-.05.2-.1.29-.17.59-.33,1.17-.65,1.76-.98.17-.09.34-.18.51-.29.23-.13.47-.26.7-.4.68-.38,1.36-.76,2.01-1.13.61-.34,1.2-.68,1.79-1.02,5.46-3.1,9.69-5.57,9.69-5.57h10.43l16.95-10.43h7.82l22.17,7.82,10.43-7.82,11.74,1.3,5.22,6.52,2.61,10.43,11.74-1.3,7.82,3.91,13.04-2.61s20.86,9.13,22.17,9.13,19.56-41.72,19.56-41.72l-1.88-8.12.57.3,1.3-9.13,5.22-11.74,10.43,9.13,10.43,6.52,5.22,7.82-1.3,6.52,1.3,15.65,6.52,2.61,5.22-2.61,6.52,7.82,9.13,2.61,33.9-16.95.18-.63,5.03,4.54-2.61,9.13-1.3,7.82,9.13-3.91,2.61-6.52,3.91,2.61v15.65Z" fill="gray" stroke="#262626" stroke-miterlimit="10" stroke-width="2"/>
  <path d="M1692.68,1030.95l5.22,13.04-15.65,26.08v16.95l-10.43,5.22-.76,4.55h0s-3.16,18.92-3.16,18.92l7.09,4.73.73,4.39v5.22l-11.74,7.82-18.25-7.82-6.52-9.13-23.47-5.22-15.65,13.04-2.61,14.34-8.32-3.43-13.85-5.7-11.74-36.51,6.52-33.9,16.95-18.25,1.3-20.86,26.08-15.65,32.6,9.13,3.91-3.91-2.65-16.81c1.59.18,2.65.18,2.65-.14,0-.04.01-.09.04-.14.17-.34.85-.96,1.83-1.75.12-.09.25-.18.38-.29,2.19-1.7,5.57-3.98,8.19-5.72,2.23-1.46,3.91-2.53,3.91-2.53l7.82-6.52h6.52l5.82-4.85,9.91,8.25s2,12.01,0,15.01c-1.5,2.27,2.67,11.37,4.82,15.7.22.46.42.85.59,1.19.07.12.12.22.17.33.1.2.2.37.26.5.1.2.16.3.16.3l1.02.25-9.7,14.19Z" fill="gray" stroke="#262626" stroke-miterlimit="10" stroke-width="2"/>
  <polygon points="1675.73 1120.92 1675.73 1124.83 1675 1120.43 1675.73 1120.92" fill="gray" stroke="#262626" stroke-miterlimit="10" stroke-width="2"/>
  <path d="M1827.39,1142.53l-7,7.99s3.01,13.01,2.01,16.01c-1,3-9.01,12-9.01,12l-13,1-7,8.01,8.01,7.99,18.01-2,.99,13-16,7s-11,13-10,15.01c1,1.99,5.01,6,5.01,6l-6.01,4.99,10,8.01,1,5.01h9l-.99,10,14.99,10.99-9,8.01-6-3-1,7,7,9-6,3v9.01l-11,3s1,39,3,41.01c2.01,1.99,6,4,6,4l-.99,16-16.01,14-7.99,16-7-3-3,9.01h-14l-6.01,7.99-9-2-4.99,7.99-13.01-3-9,29.01h-19.01l-8.8-15.1-5.19-8.91,3.99-9.01-6-6.99-10,3-16-11-3.59.2-1.21-6.65,3.91-14.34-7.82-10.43,7.82-20.86v-13.04c0-1.3-10.43-16.95-10.43-16.95l3.91-18.25-13.04-13.04-15.65-5.22-5.22-19.56s3.91-6.52,3.91-7.82-3.91-10.43-3.91-10.43l10.43-7.82-2.61-13.04-.47-.33-12.57-8.8h-16.95l-19.56-2.61-15.65-7.82.12-.8,1.19-8.33,3.91-3.91-2.61-7.82-7.82-7.82-1.3-11.74,3.91-14.34,13.04-2.61,19.06-4.73,8.32,3.43,2.61-14.34,15.65-13.04,23.47,5.22,6.52,9.13,18.25,7.82,11.74-7.82v-9.13l-.73-.48-7.09-4.73,3.16-18.91h0s.76-4.56.76-4.56l10.43-5.22v-16.95l15.65-26.08-5.22-13.04,9.7-14.19,82,19.75s3,4.99,0,6c-3,1-14,0-14,0l-5.01,16,10.01,25.01,7.99,4,4,10h6l11-4,19.01,9,6.99,15.01-3,25.01Z" fill="gray" stroke="#262626" stroke-miterlimit="10" stroke-width="2"/>
  <path d="M1657.47,1346.49l-7.82,20.86,7.82,10.43-3.91,14.34,1.21,6.65-14.42.81s-9,6-9,4.99-8.01-6-8.01-6c0,0-5.01,6-6,6s-13-3-13-3l-7,15.01s-7,.99-8.01,0c-1-1-10-9.01-10-9.01l-7,9.01-9-5.01h-19.01l-14-9-9,9-7.81-2.84-3.19-1.16-6,8.01-4-6h-7l-6,9h-6.58l-1.9-9.51,2.61-22.17-5.22-6.52v-10.43l5.22-6.52v-22.17l-13.04-9.13v-15.65l-19.56-7.82v-7.82l14.34-22.17,9.13-26.08-5.22-10.43-1.3-18.25-2.61-7.82,11.74-23.47,15.65-7.82s-6.52-9.13-9.13-9.13h-7.82l-3.91,2.61-2.61-5.22.39-1.16,2.22-6.66,10.11-12.28,8.15-9.88,7.82-5.22.96,1.92,1.64,3.3v7.82l11.36,10.09,12.11,10.77,1.3,10.43,22.17,9.13h7.82l2.61,9.13,4.03.51-.12.8,15.65,7.82,19.56,2.61h16.95l12.57,8.8.47.33,2.61,13.04-10.43,7.82s3.91,9.13,3.91,10.43-3.91,7.82-3.91,7.82l5.22,19.56,15.65,5.22,13.04,13.04-3.91,18.25s10.43,15.65,10.43,16.95v13.04Z" fill="gray" stroke="#262626" stroke-miterlimit="10" stroke-width="2"/>
  <path d="M1650.96,1014l-3.91,3.91-32.6-9.13-26.08,15.65-1.3,20.86-16.95,18.25-6.52,33.9,11.74,36.51,13.85,5.7-19.06,4.73-13.04,2.61-3.91,14.34,1.3,11.74,7.82,7.82,2.61,7.82-3.91,3.91-1.19,8.33-4.03-.51-2.61-9.13h-7.82l-22.17-9.13-1.3-10.43-12.11-10.77-11.36-10.09v-7.82l-1.64-3.3,13.38-12.35v-13.04s-10.43-9.13-11.74-10.43,2.61-15.65,2.61-15.65c0,0-7.82-7.82-9.13-9.13-1.3-1.3-16.95,9.13-16.95,9.13l-2.61-1.3,5.22-14.34-3.91-9.13,2.61-10.43-2.61-5.22,1.3-5.22h16.95l3.91-11.74-3.91-6.52,2.61-11.74,9.13-2.61,20.86-11.74,1.3-11.74,19.56-11.74,1.66-10.74.95.31,7.82-5.22h7.82l15.65,2.61,3.38,4.51.53.7h7.82l2.61,9.13,9.13,9.13,9.13,3.91,5.22-6.52,5.22,6.52,11.74,5.22s9.52,2.19,14.29,2.75h.01l2.65,16.81Z" fill="gray" stroke="#262626" stroke-miterlimit="10" stroke-width="2"/>
  <path d="M1547,964.14l-1.66,10.74-19.56,11.74-1.3,11.74-20.86,11.74-9.13,2.61-2.61,11.74,3.91,6.52-3.91,11.74h-16.95l-1.3,5.22,2.61,5.22-2.61,10.43,3.91,9.13-5.22,14.34,2.61,1.3s15.65-10.43,16.95-9.13c1.3,1.3,9.13,9.13,9.13,9.13,0,0-3.91,14.34-2.61,15.65s11.74,10.43,11.74,10.43v13.04l-13.38,12.35-.96-1.92-7.82,5.22-8.15,9.88-10.11,12.28-2.22,6.66-8.21,2.46-11.74-7.82-5.22-5.22h-9.13l-10.43,6.52h-27.38l-13.04-6.52-7.82,2.61-9.13,6.52-15.65-6.52-9.48,2.1h0s-2.26.51-2.26.51l2.61-18.25s-14.34,1.3-14.34,0c0-.91-8.33-8.24-13.31-12.54-2.13-1.83-3.64-3.1-3.64-3.1l6.52-16.95v-6.52l7.82-2.61,3.91-5.22,9.13,3.91,6.52-3.91-2.61-10.43,9.13-32.6,6.52-2.61-5.22-15.65,2.61-11.74-3.91-9.13,1.3-10.43,9.13-14.34,7.82-5.22,6.52,5.22,9.13-2.61,6.52,5.22,2.74-3.83,3.78-5.29h15.65l2.61-16.95-7.82-13.04-3.91-7.82,27.38-19.56,13.04,1.3,10.43,9.13,18.25-3.91,5.22,1.3,2.61,10.43,26.08-10.43,16.95,2.61,1.1-1.92.21.61,6.52-3.91,5.22-6.52,5.22,14.34-1.3,18.25,6.87,2.29Z" fill="gray" stroke="#262626" stroke-miterlimit="10" stroke-width="2"/>
  <path d="M1351.06,1040.07l5.22,15.65-6.52,2.61-9.13,32.6,2.61,10.43-6.52,3.91-9.13-3.91-3.91,5.22-7.82,2.61v6.52l-6.52,16.95s1.51,1.28,3.64,3.1c4.98,4.3,13.31,11.63,13.31,12.54,0,1.3,14.34,0,14.34,0l-2.61,18.25,2.26-.5-4.86,7.01-.26.03-15.39,1.28-20.86-10.43-25.33-5.5-4.66-1.02-1.3-13.04-9.13-6.52-1.3-7.82-13.04-14.34,5.22-13.04-16.17-14.26.52-.08v-20.86l-7.82-11.74,5.22-13.04-14.34-19.56,3.91-13.04-5.22-7.82v-26.08l13.04-11.74,5.22-14.34-2.61-9.13,5.22-7.82,5.22,1.3,6.52,6.52,6.52-5.22,2.61-11.74s6.52-1.3,7.82-1.3,9.13-10.43,9.13-10.43l7.82-14.34,1.6-6.42,7.52,2.5-3.91,13.04,1.3,10.43-1.3,13.04,3.91,7.82-3.91,9.13v7.82h6.52l6.52-3.91,13.04-3.91,2.61,7.82,11.74,2.61v10.43l11.74,5.22-1.3,7.82,13.04,10.43,9.13,2.61-9.13,14.34-1.3,10.43,3.91,9.13-2.61,11.74Z" fill="gray" stroke="#262626" stroke-miterlimit="10" stroke-width="2"/>
  <path d="M1468.41,1332.15l13.04,9.13v22.17l-5.22,6.52v10.43l5.22,6.52-2.61,22.17,1.9,9.51h-8.42l-4-5.01-1.99,2.01h-9v4.99l-11-.99-7-7-4,2h-11l-11-6-3.99-2-1,3.99-4-.99v-12.01l-9-1-3,2.01-1,6h-8.01l-4-4.99h-.01l-6.99-1s-4.99,7-6,7h-7l-7,7-7.99-5.01-5.01,8.01h-33l-8.01,7-.69-.3v-19.73l5.22-7.82-5.22-13.04v-27.38l11.74-18.25v-15.65l7.82-10.43,19.56-14.34,7.82-23.47-3.91-11.74,1.3-41.72,18.25-18.25-10.43-11.74-3.91,7.82-7.82,1.3-9.13-9.13-14.34,10.43-14.34-5.22-18.25-10.43-2.61-9.13-7.82-2.61,2.05-13.33,25.33,5.5,20.86,10.43,15.39-1.28.26-.03,4.86-7.01h0s9.48-2.11,9.48-2.11l15.65,6.52,9.13-6.52,7.82-2.61,13.04,6.52h27.38l10.43-6.52h9.13l5.22,5.22,11.74,7.82,8.21-2.46-.39,1.16,2.61,5.22,3.91-2.61h7.82c2.61,0,9.13,9.13,9.13,9.13l-15.65,7.82-11.74,23.47,2.61,7.82,1.3,18.25,5.22,10.43-9.13,26.08-14.34,22.17v7.82l19.56,7.82v15.65Z" fill="gray" stroke="#262626" stroke-miterlimit="10" stroke-width="2"/>
  <path d="M1340.63,1260.43l3.91,11.74-7.82,23.47-19.56,14.34-7.82,10.43v15.65l-11.74,18.25v27.38l5.22,13.04-5.22,7.82v19.73l-6.31-2.7-6,.99-1,4-8.01-.99-.99,4.99-11,2.01-6,6.99v4l-9.71,6.79-.29.21-11-.99-2.76,8.29-16.46,2.74h-15.65l-7.82,6.52h-13.04l-7.82-6.52-11.74-1.3-13.04,7.82h-18.25l-5.22-5.22,3.91-7.82,18.25-1.3,29.99-20.86-5.22-7.82h-11.74l-6.14-8.78-2.99-4.26,1.3-11.74,9.13-6.52-1.3-9.13-23.47-2.61,1.3-13.04-6.52-7.82v-23.47l2.61-10.43-9.13-11.74,5.22-6.52,6.52,5.22h9.13l5.22-13.04-3.91-10.43,10.43-9.13,6.52,3.91,19.56,1.3,2.61-13.04,11.74-5.22,3.91-9.13-3.91-9.13,14.34-15.65,14.34-5.22,13.04-2.61,2.61-3.91v-32.6l-5.22-9.13,1.3-5.22,9.13-2.61v-9.13l-6.52-3.91-7.82-1.3-6.52-6.52-18.25-1.3-7.82-7.82-2.27-22.66c2.79,2.03,6.66,4.89,7.48,5.71,1.3,1.3,14.34-3.91,14.34-3.91l.63-4.81,3.29-25.18,8.61-1.23,16.17,14.26-5.22,13.04,13.04,14.34,1.3,7.82,9.13,6.52,1.3,13.04,4.66,1.02-2.05,13.33,7.82,2.61,2.61,9.13,18.25,10.43,14.34,5.22,14.34-10.43,9.13,9.13,7.82-1.3,3.91-7.82,10.43,11.74-18.25,18.25-1.3,41.72Z" fill="gray" stroke="#262626" stroke-miterlimit="10" stroke-width="2"/>
  <path d="M982.85,862.77l-.8,10.41-1.2,1.8-5.88,8.81-7.26,2.43-7.82-5.22-13.04,2.61-5.22-5.22-14.34,5.22-5.22,13.04-3.91,6.52,2.61,9.13-7.82,3.91,1.3,11.74-22.17,29.99-6.52,19.56,1.3,20.86-6.52,35.21,14.34,13.04-2.61,6.52v9.13l-7.82,6.52-.61,1.84-3.3,9.9,3.91,13.04-.43,3.04-.87,6.09,3.91,7.82-11.74,26.08-5.22,19.56v28.69l-7.82,5.22-9.13-1.3-7.82-5.22-26.08,11.74h-14.34l-2.61-11.74-9.13-7.82v-20.86l-15.65-6.52-7.99-10.65-3.74-4.99,6.52-23.47-2.78-12.03-5.05-21.87,3.91-9.13-11.74-2.61v-9.13l.78-.78,5.74-5.74-3.91-9.13-20.86-7.82-7.82-6.52v-23.47l15.65-18.25-15.65-15.65,2.99-4.19,8.75-6.25,2.61-9.13,2.61-5.22,9.13-1.3,7.93-10.42,12.93-16.96-2.61-5.22v-10.43l6.52-10.43,15.65-5.22-9.13-16.95v-7.82l15.65-7.82v-6.52l11.74-6.52v-13.04l7.82,9.13,9.13-3.91,2.61-26.08,19.56-11.74,6.52,2.61,2.61-9.13,5.22,1.3,16.95-15.65,11.74-2.61,10.43,6.52,3.91,7.82v7.82l11.74,6.52v9.13l9.13,7.82,10.43-3.91,1.3-9.13,6.52-1.3,3.91,9.13,1.3,14.34,3.91,1.3v3.91l-1.3,9.13s1.3,5.22,1.3,6.52,5.22,6.52,5.22,6.52l-2.61,9.13s5.22,6.52,6.52,6.52c1.23,0,10.6-2.32,13.83-2.58Z" fill="#f2f2f2" stroke="#262626" stroke-miterlimit="10" stroke-width="2"/>
  <path d="M1105.93,999.65c-1.3,1.3-14.34,20.86-14.34,20.86l1.3,6.52,9.13,5.22h5.22l6.52,6.52-1.29,5.19-2.62,10.46-10.43,18.25,3.52,9.26-11.34,3.78-6.52,10.43h-20.86v14.34l-18.25,16.95-10.43,31.29-22.17,6.52-3.91,9.13-13.04,2.61h-13.04l-9.13,5.22-15.65-3.91-24.77,3.91-10.94-6.56h0s-2.1-1.26-2.1-1.26h-5.22l-14.34,7.82-4.68-1.33-4.45-1.28v-26.08l-5.22-15.65,9.13-26.08-2.61-14.34-9.56-.87.43-3.04-3.91-13.04,3.3-9.9.61-1.84,7.82-6.52v-9.13l2.61-6.52-14.34-13.04,6.52-35.21-1.3-20.86,6.52-19.56,22.17-29.99-1.3-11.74,7.82-3.91-2.61-9.13,3.91-6.52,5.22-13.04,14.34-5.22,5.22,5.22,13.04-2.61,7.82,5.22,7.26-2.43-.74,1.12,1.3,6.52,18.25-3.91,14.34,5.22,9.13-1.3,6.52,13.04,7.82,5.22,1.3,7.82,13.04,7.82,26.08-2.61,16.95,13.04,13.04-2.61,6.52,2.61h7.82l13.04,13.04-7.82,32.6s-14.34,16.95-15.65,18.25Z" fill="gray" stroke="#262626" stroke-miterlimit="10" stroke-width="2"/>
  <path d="M1238.92,1173.07l-1.3,5.22,5.22,9.13v32.6l-2.61,3.91-13.04,2.61-14.34,5.22-14.34,15.65,3.91,9.13-3.91,9.13-11.74,5.22-2.61,13.04-19.56-1.3-6.52-3.91-10.43,9.13,3.91,10.43-5.22,13.04h-9.13l-6.52-5.22-5.22,6.52,9.13,11.74-2.61,10.43v23.47l6.52,7.82-1.3,13.04,23.47,2.61,1.3,9.13-9.13,6.52-1.3,11.74,2.99,4.26,6.14,8.78h11.74l5.22,7.82-29.99,20.86-18.25,1.3-3.91,7.82.81.81-32.1,8.32-20.86-9.13-.23.13-15.41,9-6.39-4.19-35.34-23.2-3.91-19.56h-14.34l-10.43-9.13h-11.74l-9.13,9.13-24.77-26.08-16.95,1.3-9.13-5.22-7.67,3.29-1.46.63-2.61,11.74-10.43-7.82-2-1.64-20.17-16.61-10.43,5.22-11.74-11.74,1.3-7.82,5.22-6.52-1.3-16.95-5.22-13.04,2.61-6.52,19.56,5.22,13.04-14.34,23.47-14.34-9.13-43.03-2.03-25.44-.57-7.16-1.3-28.69,1.84-15.67,4.68,1.33,14.34-7.82h5.22l2.1,1.25h0s10.94,6.57,10.94,6.57l24.77-3.91,15.65,3.91,9.13-5.22h13.04l13.04-2.61,3.91-9.13,22.17-6.52,10.43-31.29,18.25-16.95v-14.34h20.86l6.52-10.43,11.34-3.78,6.91,18.12,5.22,2.61,2.61,6.52,15.65-3.91,6.52-5.22,6.52,3.91,14.34,1.3,5.22-3.91h10.43l7.82,5.22,2.61,9.13h9.13s1.28.91,2.95,2.11l2.27,22.66,7.82,7.82,18.25,1.3,6.52,6.52,7.82,1.3,6.52,3.91v9.13l-9.13,2.61Z" fill="gray" stroke="#262626" stroke-miterlimit="10" stroke-width="2"/>
  <path d="M593.87,989.22l2.23,5.22-2.15,3.69-16.1,27.6h-9.13l-14.34,7.82-11.74,26.08h-18.25l-11.74,6.52-35.21-7.82-10.43,5.22h-37.81l-14.34-10.43-18.25,10.43-9.49-2.37.37-5.45s-3.91-7.82-3.91-9.13,9.13-22.17,9.13-22.17l-7.82-15.65-7.82-2.61,7.82-15.65-7.82-13.04,2.61-22.17s-9.13-3.91-9.13-5.22,1.3-9.13,1.3-9.13l-6.52-7.82v-5.22l3.91-2.61,6.52,5.22h16.95l18.25-15.65h10.43v-22.17l13.04-24.77-2.61-9.13,5.22-7.82h14.34l1.3-13.04h15.65l5.84-9.34.68.21,7.82,20.86,2.61-2.61,2.61-6.52,5.22,1.3v9.13l10.43,13.04,19.56,9.13,7.82-5.22,6.52,13.04s14.34-9.13,15.65-9.13,5.22,2.61,5.22,2.61l.1-.61,7.17,18.54,3.16,8.15,14.34,6.52s2.18.16,5.02.3l8.02,14.04-14.34,23.47,9.13,18.25-2.61,13.04,5.59,13.04Z" fill="#f2f2f2" stroke="#262626" stroke-miterlimit="10" stroke-width="2"/>
  <path d="M763,1047.9l-5.74,5.74-7.3-13.56-10.43,1.3-6.52-3.91h-6.52l-16.95,15.65h-43.03l-3.91-7.82-5.22-2.61-5.22,7.82-16.95,6.52-9.13-3.91-14.34-29.99-7.82-19.56-9.97-5.44,2.15-3.69-2.23-5.22-5.59-13.04,2.61-13.04-9.13-18.25,14.34-23.47-8.02-14.04c5.41.29,13.23.55,13.23-.3,0-1.3,10.43-11.74,10.43-11.74l6.52,1.3,6.52,7.82,5.22-5.22,3.91-6.52,3.91,5.22v7.82l-10.43,13.04,1.3,2.61,33.9-3.91,9.13-6.52,6.52,2.61s2.61,9.13,3.91,9.13,14.34-7.82,14.34-7.82l3.91-9.13,6.52,1.3,5.22-2.61,3.91,5.22-2.61,24.77,10.43,11.74,1.3,7.82,7.82,9.13.38-.27-2.99,4.19,15.65,15.65-15.65,18.25v23.47l7.82,6.52,20.86,7.82,3.91,9.13Z" fill="#f2f2f2" stroke="#262626" stroke-miterlimit="10" stroke-width="2"/>
  <path d="M765.61,1132.65l3.74,4.99-8.96,4.13-5.22,6.52,2.61,11.74-7.82,5.22h-13.04l-10.43,13.04,1.3,15.65-9.13,7.82,1.3,10.43-15.65,11.74s-.85,2.8-1.88,5.95c-1.19,3.62-2.63,7.69-3.34,8.4-1.3,1.3-10.43,6.52-10.43,6.52l-5.22,5.96-3.91,4.47-13.04-7.82-1.23-6.14-.08-.38-16.95-16.95.1-.65,1.2-7.17-7.82-10.43,2.61-18.25-6.52-2.61-7.82,2.61-15.65-13.04s-.67-.13-1.7-.35c-3.57-.76-11.63-2.54-12.65-3.56-1.3-1.3,0-9.13,0-9.13l-10.43-5.22-14.34-2.61-.69-7.65-.61-6.69v-19.56l-6.52-7.82-9.13,5.22-2.61,9.13-22.17-14.34-15.65,3.91-33.9,23.47h-15.65l-19.56-15.65-3.91-11.74-24.77-9.13-6.52-11.74-15.65-3.48v-1.73l-11.74-10.43.08-1.1.86-13.01,9.49,2.37,18.25-10.43,14.34,10.43h37.81l10.43-5.22,35.21,7.82,11.74-6.52h18.25l11.74-26.08,14.34-7.82h9.13l16.1-27.6,9.97,5.44,7.82,19.56,14.34,29.99,9.13,3.91,16.95-6.52,5.22-7.82,5.22,2.61,3.91,7.82h43.03l16.95-15.65h6.52l6.52,3.91,10.43-1.3,7.3,13.56-.78.78v9.13l11.74,2.61-3.91,9.13,5.05,21.87,2.78,12.03-6.52,23.47Z" fill="#f2f2f2" stroke="#262626" stroke-miterlimit="10" stroke-width="2"/>
  <path d="M898.61,1257.83h-9.13l-1.3,9.13-5.22,6.52-11.74,2.61-2.61,11.74-19.56-1.3-7.82,5.22-10.43-2.61-5.22,5.22,2.61,9.13-5.22,16.95-10.43-5.22-16.95,10.43-9.13-5.22h-7.82l-6.52-7.82h-11.74c-1.3,0-6.52-2.61-6.52-2.61l-14.34,7.82-3.91,13.04-6.15,7.28-8.19,9.67-2.95-.39-15.2-2.03-1.41-.18-9.13-9.13v-27.38l-7.88-13.8-2.56-4.46,5.22-11.74-2.61-7.82,5.22-11.74-6.52-8.38,5.22-5.96s9.13-5.22,10.43-6.52c.7-.7,2.15-4.77,3.34-8.4,1.03-3.14,1.88-5.95,1.88-5.95l15.65-11.74-1.3-10.43,9.13-7.82-1.3-15.65,10.43-13.04h13.04l7.82-5.22-2.61-11.74,5.22-6.52,8.96-4.13,7.99,10.65,15.65,6.52v20.86l9.13,7.82,2.61,11.74h14.34l26.08-11.74,7.82,5.22,9.13,1.3,7.82-5.22v-28.69l5.22-19.56,11.74-26.08-3.91-7.82.87-6.09,9.56.87,2.61,14.34-9.13,26.08,5.22,15.65v26.08l4.45,1.28-1.84,15.67,1.3,28.69.57,7.16,2.03,25.44Z" fill="#f2f2f2" stroke="#262626" stroke-miterlimit="10" stroke-width="2"/>
  <path d="M1189.27,1867.67l-4,43,14,22.01,1.84,13.6c0,.18,1.23,10.27,1.3,10.43l26.08,49.55-27.38-36.51-3.91-23.47-27.93-28.61,6-4-13-12-8.01,6v24l5.01,9-14-7.99.99-7-10.99-13h-17l-5.01-7h-20l-3.29-15.63-.72-3.38,11-2,9-11-4.69-6.58.07-.34,3.91-5.22-9.13-6.52v-11.74l-2.61-10.43,1.3-10.43,11.74-6.52,5.22-3.91s-1.3-15.65-2.61-16.95,16.95-14.34,16.95-14.34h9.51l-.64.96.99,13,8.01,7s10-1.99,10-1c0,.14.3.5.82.98.1.1.22.2.34.31.98.86,2.45,2.06,4.08,3.34.21.17.42.33.63.48.21.17.42.33.63.5,4.06,3.13,8.51,6.4,8.51,6.4l4.99,13,12.01,7s-2.01,7-1,7,15.01,13,15.01,13c0,.03,0,5.01-1,6-1,1-13,9.01-13,9.01Z" fill="#b3b3b3" stroke="#262626" stroke-miterlimit="10" stroke-width="2"/>
  <path d="M1146.26,1769.64l-7.35,11.04h-9.51s-18.25,13.04-16.95,14.34,2.61,16.95,2.61,16.95l-5.22,3.91-11.74,6.52-1.3,10.43,2.61,10.43v11.74l9.13,6.52-3.91,5.22-.07.34-.3-.42s-5.01,9-6.01,9-7.99-4.99-7.99-4.99l3-6-8.01-11-4,4v4.99l9.01,16.01h-7l-41.01-39.01-10-9-15.01-1-10-13-9.7-10.59-1.3-1.42-15.71-10.24,2.84-8.51,6.52-23.47-7.82-22.17h-9.13l-5.22-7.82,5.22-13.04-11.74-3.91-2.61-22.17,2.29-4.13.77-1.4,3.46-6.21,2.8-.29,10.24-1.02,9.13-9.13,9.13,3.91,9.13-3.91v-10.43l19.56-10.43,5.31,9.1,3.82,6.55,14.34-2.61,7.82-14.34,11.74,2.61,5.22,13.04,11.74,1.3,9.13-9.13,11.14,1.02,3.92,9.79-.99,13,10,16.01,3.19,2.03,7.8,4.97s6.01,14,7,14.99,9.01,4,9.01,4l-10,6,6,17-2.01,12.01,7,12Z" fill="#b3b3b3" stroke="#262626" stroke-miterlimit="10" stroke-width="2"/>
  <path d="M1230.28,1492.59l-10,3.01s-20,19-20,20-1,13-1,13l-10,13v8.01l-28.01,9-10,15.01,13,11-8.01,3-4.99,4.99-10,3-22.01-.99-10-5.01-7.99,11,7,6-3.01,51.01.08.21-11.14-1.02-9.13,9.13-11.74-1.3-5.22-13.04-11.74-2.61-7.82,14.34-14.34,2.61-3.82-6.55-5.31-9.1v-15.65l-6.52-5.22-3.91-11.74h-9.13l-3.17-10.54-.74-2.5,5.92-9.87,9.73-16.21,1.3-32.6-7.82-15.65-2.61-16.95,10.43-5.22-6.52-18.25h31.29v-15.65l7.95-9.4,6.39,4.19,15.41-9,.23-.13,20.86,9.13,32.1-8.32,4.41,4.41h18.25l13.04-7.82,11.74,1.3,7.82,6.52h13.04l7.82-6.52h15.65l16.46-2.74-.23.7,3,8.01s-8.01,7.99-9.01,10c-.99,2,2.01,17.99,2.01,17.99Z" fill="#b3b3b3" stroke="#262626" stroke-miterlimit="10" stroke-width="2"/>
  <polygon points="989.88 1762.43 983.36 1785.9 980.52 1794.42 973.23 1789.66 963.23 1791.65 951.22 1803.66 934.22 1803.66 932.22 1808.66 921.22 1808.66 919.22 1805.66 907.21 1805.66 904.21 1815.66 896.21 1814.66 887.21 1806.66 873.22 1801.99 866.2 1799.66 835.2 1798.66 829.2 1795.66 820.2 1797.65 819.2 1800.65 804.66 1802.59 802.12 1792.42 812.55 1778.08 809.94 1768.95 820.37 1762.43 829.5 1737.66 825.59 1724.62 826.89 1716.8 837.32 1720.71 846.45 1712.89 849.06 1705.06 867.31 1708.97 881.66 1705.06 893.39 1718.1 925.99 1710.28 936.42 1693.33 948.15 1686.81 960.88 1689.19 958.59 1693.33 961.19 1715.49 972.93 1719.41 967.71 1732.44 972.93 1740.27 982.06 1740.27 989.88 1762.43" fill="#b3b3b3" stroke="#262626" stroke-miterlimit="10" stroke-width="2"/>
  <polygon points="967.91 1681.31 965.11 1681.59 961.65 1687.8 960.88 1689.19 948.15 1686.81 936.42 1693.33 925.99 1710.28 893.39 1718.1 881.66 1705.06 867.31 1708.97 849.06 1705.06 846.45 1712.89 837.32 1720.71 826.89 1716.8 825.59 1724.62 829.5 1737.66 820.37 1762.43 809.94 1768.95 812.55 1778.08 802.12 1792.42 804.66 1802.59 804.19 1802.66 801.19 1815.66 798.19 1813.66 792.2 1812.66 793.2 1802.66 777.19 1800.65 778.19 1778.65 787.19 1773.65 789.2 1756.64 778.19 1745.64 780.19 1732.64 792.2 1724.65 791.19 1714.65 784.19 1705.64 784.19 1696.64 795.19 1677.63 789.2 1661.63 788.19 1653.62 792.2 1647.63 803.2 1641.63 803.85 1627.32 803.97 1624.65 812.55 1612.49 822.98 1607.27 820.37 1596.84 838.63 1590.32 860.79 1594.23 886.87 1617.7 924.68 1629.44 931.2 1648.99 955.98 1662.03 967.91 1681.31" fill="#b3b3b3" stroke="#262626" stroke-miterlimit="10" stroke-width="2"/>
  <path d="M1025.08,1634.65v15.65l-19.56,10.43v10.43l-9.13,3.91-9.13-3.91-9.13,9.13-10.24,1.02-11.93-19.27-24.77-13.04-6.52-19.56-37.81-11.74-26.08-23.47-22.17-3.91-18.25,6.52,2.61,10.43-10.43,5.22-8.58,12.17.22-5.03-2-6-4.76,3.96-1.24,1.04-10-1-8.16-6.34,1.92-10.54,15.65-18.25-13.68-11.85-5.88-5.1.33-.48,17.93-26.9-9.13-9.13,3.17-19.05h.01l.73-4.42,13.34-3.64.37-.1.64-.17,32.34,1.24,1.56.07,6.52,7.82-2.61,6.52,1.3,10.43,11.74-6.52,7.82,5.22,24.77-1.3,5.22,5.22,20.86,6.52s9.13,9.13,10.43,9.13h9.13l10.43,10.43s13.04-2.61,14.34-2.61,15.65-5.22,15.65-5.22l10.43,7.82,2.61,7.82h7.82v6.52l-2.61,3.91,2.61,6.52,7.82,2.61,5.92,10.99-5.92,9.87.74,2.5,3.17,10.54h9.13l3.91,11.74,6.52,5.22Z" fill="#b3b3b3" stroke="#262626" stroke-miterlimit="10" stroke-width="2"/>
  <path d="M1051.29,1464.87l-7.95,9.4v15.65h-31.29l6.52,18.25-10.43,5.22,2.61,16.95,7.82,15.65-1.3,32.6-9.73,16.21-5.92-10.99-7.82-2.61-2.61-6.52,2.61-3.91v-6.52h-7.82l-2.61-7.82-10.43-7.82s-14.34,5.22-15.65,5.22-14.34,2.61-14.34,2.61l-10.43-10.43h-9.13c-1.3,0-10.43-9.13-10.43-9.13l-20.86-6.52-5.22-5.22-24.77,1.3-7.82-5.22-11.74,6.52-1.3-10.43,2.61-6.52-6.52-7.82-1.56-.07,2.87-6.45,10.43-2.61,5.22-9.13,24.77-2.61-6.52-16.95,9.13-13.04,15.65-2.61v-5.22l-5.22-2.61,1.3-6.52,14.34,1.3,10.43-2.61v-15.65l-14.34-10.43,2.61-11.74,1.46-.63,7.67-3.29,9.13,5.22,16.95-1.3,24.77,26.08,9.13-9.13h11.74l10.43,9.13h14.34l3.91,19.56,35.34,23.2Z" fill="#b3b3b3" stroke="#262626" stroke-miterlimit="10" stroke-width="2"/>
  <polygon points="918.16 1418.2 918.16 1433.85 907.73 1436.46 893.39 1435.16 892.09 1441.68 897.3 1444.28 897.3 1449.5 881.66 1452.11 872.53 1465.15 879.05 1482.1 854.27 1484.7 849.06 1493.83 838.63 1496.44 835.76 1502.89 803.42 1501.65 802.78 1501.82 802.42 1501.93 789.08 1505.57 789.08 1446.89 798.21 1439.07 798.21 1428.64 799.76 1428.83 808.64 1429.94 821.68 1418.2 820.37 1402.56 839.93 1412.99 846.45 1418.2 854.27 1412.99 851.67 1405.17 852.97 1398.65 858.19 1397.34 860.79 1386.91 871.22 1381.7 891.4 1398.31 893.39 1399.95 903.82 1407.77 918.16 1418.2" fill="#f2f2f2" stroke="#262626" stroke-miterlimit="10" stroke-width="2"/>
  <path d="M562.2,1508.17l-.42.63-17.84,26.76-14.34,1.3-14.34-6.52s-13.04,15.65-14.34,16.95c-1.3,1.3-22.17,1.3-22.17,1.3l-9.13-6.52-15.65,9.13h-15.65l-11.74,3.91-10.43-1.3-13.04,8.15v-5.35l-11-9.01.99-14h-3.99v-13.99h-6.01s-2-8.01-12-10.01c-1-3-5.01-19-5.01-19l-7.99-3v-13l-20-5.01v-7l-34.02-21.01-1.99-6-25.01-14v-11l-4.99,1-17-39.01-9.01,2.01v-12.01s-3.99-9-26-25c-9-8.01-20-32.01-20-32.01l1.99-7-4.99-4.99v-5.01l3-4-3-9-5.01-2.01v-4.99l5.01-10-12.01-15.01,7-18.01-3-10.99h14s6-7,9-10v-7s15.01.99,22.01,10.99c3.52-2.35,4.63-2.96,4.95-3.09l-6.95-13.91,4.99-7.99h7l13-4,12.01,10,6-6v-31.01l-6.32-35.54,6.57,1.32,5.22,6.52h9.13l15.65,22.17-1.3,6.52s7.2,3.6,9.64,5.57c.5.4.8.73.8.95v10.43l26.08,27.38,2.61,10.43,13.04,3.91,11.74,22.17,1.3,20.86,13.04,5.22,13.04-2.61,6.52,6.52,6.39-1.07,1.43-.23,11.74,7.82,7.65-1.28.17-.03,6.52,5.22,1.3,18.25-6.52,10.43,16.95,15.65h11.74l6.52,11.74,14.34,5.22,13.04-6.52,2.61-13.04,19.56-9.13,9.13,22.17,15.65,7.82,9.13,14.34-6.52,5.22-1.3,14.34,7.82,9.13s0,63.89-1.3,63.89-13.04,11.74-13.04,11.74l5.22,18.25,5.46,4.09,6.57,4.93,3.61,2.71-3.91,7.82,3.51,4.81,6.92,9.53Z" fill="#ccc" stroke="#262626" stroke-miterlimit="10" stroke-width="2"/>
  <path d="M606.53,1182.2l3.91,10.43-11.74,11.74-6.52-3.91-20.86-1.3-9.13,2.61-6.52-6.52-14.34-2.61-11.74,9.13-2.61,15.65,14.34,16.95v15.65l-13.04,15.65v10.43l-15.65-3.91-7.82,9.13-27.38-10.43h-14.34l-3.91-15.65h-13.04l-3.91-5.22-7.82,5.22-5.39,14.37-7.65,1.28-11.74-7.82-1.43.23-6.39,1.07-6.52-6.52-13.04,2.61-13.04-5.22-1.3-20.86,2.61-24.77,6.52-9.13-1.3-11.74,6.52-10.43-2.61-16.95,5.22-7.82-5.22-9.13-1.3-7.82,11.74-6.52v-18.25l7.82-7.82v-16.52l15.65,3.48,6.52,11.74,24.77,9.13,3.91,11.74,19.56,15.65h15.65l33.9-23.47,15.65-3.91,22.17,14.34,2.61-9.13,9.13-5.22,6.52,7.82v19.56l.61,6.69.69,7.65,14.34,2.61,10.43,5.22s-1.3,7.82,0,9.13c1.02,1.02,9.08,2.8,12.65,3.56l-6.13,8.18Z" fill="#f2f2f2" stroke="#262626" stroke-miterlimit="10" stroke-width="2"/>
  <path d="M665.29,1241.25l-9.21,6.14-2.61,7.82h-9.13l-5.22,5.22,6.52,3.91v14.34h-14.34l-5.37,3.76-7.67,5.37-.59-.42-8.54-6.1-13.04-3.91-3.91,10.43-22.17,2.61-27.38-6.52-14.34-8.44v-9.82l13.04-15.65v-15.65l-14.34-16.95,2.61-15.65,11.74-9.13,14.34,2.61,6.52,6.52,9.13-2.61,20.86,1.3,6.52,3.91,11.74-11.74-3.91-10.43,6.13-8.18c1.03.22,1.7.35,1.7.35l15.65,13.04,7.82-2.61,6.52,2.61-2.61,18.25,7.82,10.43-1.2,7.17-.1.65,16.95,16.95.08.38Z" fill="#f2f2f2" stroke="#262626" stroke-miterlimit="10" stroke-width="2"/>
  <path d="M649.56,1405.17v16.95l-6.52,6.52v9.13l-3.13,10.43-.78,2.61-5.27,3.3-15.59,9.74-24.77-2.61-24.77,6.52-16.65,15.54-6.57-4.93-5.46-4.09-5.22-18.25s11.74-11.74,13.04-11.74,1.3-63.89,1.3-63.89l-7.82-9.13,1.3-14.34,6.52-5.22-9.13-14.34-15.65-7.82-9.13-22.17-19.56,9.13-2.61,13.04-13.04,6.52-14.34-5.22-6.52-11.74h-11.74l-16.95-15.65,6.52-10.43-1.3-18.25-6.52-5.22-.17.03,5.39-14.37,7.82-5.22,3.91,5.22h13.04l3.91,15.65h14.34l27.38,10.43,7.82-9.13,15.65,3.91v-.61l14.34,8.44,27.38,6.52,22.17-2.61,3.91-10.43,13.04,3.91,8.54,6.1.59.42,7.67-5.37,10.59,10.59-.83,3.33-1.77,7.11,1.3,9.13-.51,1.53-3.4,10.21,5.22,18.25-3.91,10.43v7.82l-2.61,9.13,2.7,3.47,6.43,8.27.53,5.36.77,7.68,9.13,10.43Z" fill="#f2f2f2" stroke="#262626" stroke-miterlimit="10" stroke-width="2"/>
  <polygon points="692.59 1308.68 692.59 1334.94 678.25 1330.84 659.99 1316.5 652.17 1319.11 634.71 1314.11 635.22 1312.59 633.92 1303.46 635.69 1296.36 636.52 1293.03 625.94 1282.44 631.31 1278.69 645.65 1278.69 645.65 1264.34 639.13 1260.43 644.35 1255.22 653.47 1255.22 656.08 1247.39 665.29 1241.25 666.51 1247.39 679.55 1255.22 683.46 1250.75 689.98 1259.13 684.77 1270.86 687.38 1278.69 682.16 1290.42 684.72 1294.88 692.59 1308.68" fill="#f2f2f2" stroke="#262626" stroke-miterlimit="10" stroke-width="2"/>
  <path d="M907.73,1300.85l-23.47,14.34-13.04,14.34-19.56-5.22-2.61,6.52,5.22,13.04,1.3,16.95-5.22,6.52-1.3,7.82,11.74,11.74-2.61,10.43-5.22,1.3-1.3,6.52,2.61,7.82-7.82,5.22-6.52-5.22-19.56-10.43,1.3,15.65-13.04,11.74-8.88-1.11-1.55-.2v6.95l-13.04,2.18-6.52-2.61-10.43,5.22v-16.95l-9.13-6.52,2-8.98.61-2.75-6.52-3.91,2.61-16.95-5.22-6.52,7.82-6.52v-5.22h-14.34l-6.52-2.61-3.91,5.22-14.34-1.3-9.13-9.13,6.18-10.82,2.95.39,8.19-9.67,6.15-7.28,3.91-13.04,14.34-7.82s5.22,2.61,6.52,2.61h11.74l6.52,7.82h7.82l9.13,5.22,16.95-10.43,10.43,5.22,5.22-16.95-2.61-9.13,5.22-5.22,10.43,2.61,7.82-5.22,19.56,1.3,2.61-11.74,11.74-2.61,5.22-6.52,1.3-9.13h9.13l9.13,43.03Z" fill="#f2f2f2" stroke="#262626" stroke-miterlimit="10" stroke-width="2"/>
  <path d="M697.81,1349.1s-3.91,11.74-3.91,13.04,3.91,10.43,3.91,10.43v15.65l-5.22,7.82s-10.43,0-11.74-1.3,1.3-10.43,1.3-10.43l-7.82-3.91-6.52,1.3-9.13,3.91-11.74-2.61-7.29,4.06-.53-5.36-6.43-8.27-2.7-3.47,2.61-9.13v-7.82l3.91-10.43-5.22-18.25,3.4-10.21,17.46,4.99,7.82-2.61,18.25,14.34,14.34,4.09v1.12l9.13,9.13,1.41.18-5.32,3.73Z" fill="#f2f2f2" stroke="#262626" stroke-miterlimit="10" stroke-width="2"/>
  <path d="M768.22,1423.42v16.95l-41.72,23.47-6.52,1.3-7.82,5.22-10.6-2.13-2.44-.48s-5.22,5.22-6.52,5.22-26.31-1.19-28.53-1.3h-.16l-2.61-3.91-4.32-1.43-3.51-1.17-2.61,2.61h-2.61v-11.74l-14.4-1.92,5.27-3.3.78-2.61,3.13-10.43v-9.13l6.52-6.52v-16.95l-9.13-10.43-.77-7.68,7.29-4.06,11.74,2.61,9.13-3.91,6.52-1.3,7.82,3.91s-2.61,9.13-1.3,10.43,11.74,1.3,11.74,1.3l5.22-7.82v-15.65s-3.91-9.13-3.91-10.43,3.91-13.04,3.91-13.04l5.32-3.73,15.2,2.03-6.18,10.82,9.13,9.13,14.34,1.3,3.91-5.22,6.52,2.61h14.34v5.22l-7.82,6.52,5.22,6.52-2.61,16.95,6.52,3.91-.61,2.75-2,8.98,9.13,6.52Z" fill="#f2f2f2" stroke="#262626" stroke-miterlimit="10" stroke-width="2"/>
  <path d="M798.21,1435.59v3.48l-9.13,7.82v58.68l-.73,4.42h-.01c-3.57.9-18.97,4.71-20.12,4.71-1.3,0-6.52-2.61-6.52-2.61l-5.22,5.22h-26.08l-10.43-9.13h-20.86l-10.43-6.52h-15.65l-6.52-5.22-5.22-9.13,2.76-15.65c2.22.12,27.28,1.3,28.53,1.3s6.52-5.22,6.52-5.22l2.44.48,10.6,2.13,7.82-5.22,6.52-1.3,41.72-23.47,10.43-5.22,6.52,2.61,13.04-2.18Z" fill="#f2f2f2" stroke="#262626" stroke-miterlimit="10" stroke-width="2"/>
  <path d="M712.5,1508.17l-9.48,27.38-5.22,7.82s-6.52-2.61-7.82-2.61c-.44,0-3.95,0-8.42-.05-.37,0-.73,0-1.1-.01-3.59-.05-7.65-.13-11.23-.27-.65-.03-1.28-.05-1.88-.08-.14-.01-.3-.03-.44-.03-.37-.03-.73-.04-1.08-.07-.69-.04-1.36-.08-1.96-.13-.29-.01-.56-.04-.82-.07-.56-.05-1.07-.1-1.5-.17-.85-.13-1.41-.27-1.56-.43-1.3-1.3-14.34-26.08-14.34-26.08l6.52-11.74-6.52-3.91,2.61-29.99h2.61l2.61-2.61,3.51,1.17,4.32,1.43,2.61,3.91h.16l-2.76,15.65,5.22,9.13,6.52,5.22h15.65l10.43,6.52h13.39Z" fill="#f2f2f2" stroke="#262626" stroke-miterlimit="10" stroke-width="2"/>
  <polygon points="795.6 1582.5 779.95 1600.75 778.04 1611.29 777.19 1610.62 760.18 1610.62 757.19 1609.62 741.19 1609.62 726.18 1602.62 719.18 1602.62 714.18 1607.62 703.18 1608.61 701.17 1610.62 687.69 1610.62 688.68 1600.75 686.07 1590.32 689.98 1586.41 695.2 1591.62 701.72 1591.62 704.33 1583.8 703.02 1575.98 708.24 1570.76 710.85 1565.55 716.06 1565.55 718.67 1573.37 726.49 1577.28 742.14 1575.98 746.05 1560.33 776.37 1565.06 776.04 1565.55 781.92 1570.64 795.6 1582.5" fill="#f2f2f2" stroke="#262626" stroke-miterlimit="10" stroke-width="2"/>
  <path d="M794.29,1538.16l-17.93,26.9-30.32-4.73-3.91,15.65-15.65,1.3-7.82-3.91-2.61-7.82h-5.22l-2.61,5.22-5.22,5.22,1.3,7.82-2.61,7.82h-6.52l-5.22-5.22-3.91,3.91,2.61,10.43-.99,9.87h-.51l-2.37.95-2.63,1.04h-4.92l.99-11.87-5.22-6.52-2.61-9.13-7.82-7.82-.31-3.47-.99-10.87-1.03-1.55-1.58-2.36,2.87-19.13c.43.07.94.12,1.5.17.26.03.53.05.82.07.6.05,1.26.09,1.96.13.35.03.72.04,1.08.07.14,0,.3.01.44.03.6.03,1.23.05,1.88.08,3.57.14,7.64.22,11.23.27.37.01.73.01,1.1.01,4.47.05,7.98.05,8.42.05,1.3,0,7.82,2.61,7.82,2.61l5.22-7.82,9.48-27.38h7.47l10.43,9.13h26.08l5.22-5.22s5.22,2.61,6.52,2.61c1.15,0,16.55-3.81,20.12-4.71l-3.17,19.05,9.13,9.13Z" fill="#f2f2f2" stroke="#262626" stroke-miterlimit="10" stroke-width="2"/>
  <polygon points="678.25 1600.75 677.26 1612.62 658.17 1612.62 654.16 1610.62 648.17 1610.62 646.17 1616.62 638.17 1617.62 630.16 1619.62 622.17 1622.62 613.61 1624.95 611.16 1625.63 606.53 1630.24 606.53 1625.52 596.85 1611.52 594.8 1608.57 594.85 1607.77 596.1 1586.41 602.62 1575.98 614.36 1575.98 614.36 1570.76 617.63 1570.11 633.92 1566.85 633.92 1572.06 640.43 1572.06 650.87 1569.46 646.95 1564.24 660.27 1561.39 661.3 1562.94 662.29 1573.81 662.6 1577.28 670.42 1585.1 673.03 1594.23 678.25 1600.75" fill="#f2f2f2" stroke="#262626" stroke-miterlimit="10" stroke-width="2"/>
  <path d="M660.27,1561.39l-13.31,2.86,3.91,5.22-10.43,2.61h-6.52v-5.22l-16.29,3.26-3.27.65v5.22h-10.55l-2.49-9.13-9.13-1.3,1.3-11.74h-7.82s-1.3,3.91-3.91,3.91-9.13-3.91-9.13-3.91l6.52-11.74v-9.13l-11.74-2.61-1.3-14.34,6.52-5.22-3.91-2.61-6.94.63.42-.63-6.92-9.53-3.51-4.81,3.91-7.82-3.61-2.71,16.65-15.54,24.77-6.52,24.77,2.61,15.59-9.74,14.4,1.92v11.74l-2.61,29.99,6.52,3.91-6.52,11.74s13.04,24.77,14.34,26.08c.16.16.72.3,1.56.43l-2.87,19.13,1.58,2.36Z" fill="#f2f2f2" stroke="#262626" stroke-miterlimit="10" stroke-width="2"/>
  <path d="M606.53,1625.52v4.72l-2.37,2.37-5.01,1-4.99,8.01-3.16.39-4.85.61v9l-8.01,4,.09.76-9.52,1.73-5.22,11.74s-6.52,1.3-6.52,0v-20.86l.14-.44,4.92-14.72,2.76-8.31-1.3-16.95,6.52-2.61,10.43,9.13,5.22-5.22,9.18-2.11-.05.81,2.05,2.95,9.69,14Z" fill="#f2f2f2" stroke="#262626" stroke-miterlimit="10" stroke-width="2"/>
  <path d="M603.81,1575.98h-1.19l-6.52,10.43-1.25,21.36-9.18,2.11-5.22,5.22-10.43-9.13-6.52,2.61,1.3,16.95-2.76,8.31-4.92,14.72-24.92-2.16-18.25,14.34-1.3,16.95-15.65,1.3-11.74-2.61s-7.82,6.52-9.13,6.52h-11.74l-15.65-11.74-6.52-1.3-2.61,6.52-3.91,13.04h-9.13l-10.43-11.74-3.08-1.03h.04s-4-8.02-4-8.02l.99-4,3.01-1v-3.99l-5.01-2.01v-4.99l3-6.01.07-2.24.94-29.75-5.01-4,2.01-13-6-6.01,3-.99v-4l-3-1v-23.65l13.04-8.15,10.43,1.3,11.74-3.91h15.65l15.65-9.13,9.13,6.52s20.86,0,22.17-1.3c1.3-1.3,14.34-16.95,14.34-16.95l14.34,6.52,14.34-1.3,17.84-26.76,6.94-.63,3.91,2.61-6.52,5.22,1.3,14.34,11.74,2.61v9.13l-6.52,11.74s6.52,3.91,9.13,3.91,3.91-3.91,3.91-3.91h7.82l-1.3,11.74,9.13,1.3,2.49,9.13Z" fill="#ccc" stroke="#262626" stroke-miterlimit="10" stroke-width="2"/>
  <path d="M609.15,1715.64l-12,16.01-1,13-5.5,12.54-12.5,28.46,1.4,14.6.67,5.5-14.1,1-5.22,3.91-10.43-2.61-18.25,2.61-9.13,2.61-10.43-9.13h-6.52l-2.61,13.04-10.43,2.61-13.04,1.3-5.22-5.22-11.71,2.13v-.37l-4-7h-7.99l-3.34-3.6-9.67-10.39h-7.99l-1-10.01-11-.99-2-23.01-10-4.99,2-14-7-4,8.01-6v-9l-21.01-19.01,7-4v-17l-4-1.99,6-6,6.01-1,4.99,4,4.97-2.99,3.08,1.03,10.43,11.74h9.13l3.91-13.04,2.61-6.52,6.52,1.3,15.65,11.74h11.74c1.3,0,9.13-6.52,9.13-6.52l11.74,2.61,15.65-1.3,1.3-16.95,18.25-14.34,24.92,2.16-.14.44v20.86c0,1.3,6.52,0,6.52,0l5.22-11.74,9.52-1.73.91,8.24,14,19.01,8.01,3s-2.01,17-1,17.99c1,1,9,11,9,11Z" fill="#ccc" stroke="#262626" stroke-miterlimit="10" stroke-width="2"/>
  <path d="M594.16,1903.67l-13,10-4,14-23.01,21.01-6,19.01,5.01,13-7,4.99-1,13.01s-14,16-16,17c-2.01.99-36.01,78.01-36.01,78.01l2.01,13s-2.01,11-2.01,12-16,13.01-16,13.01v7.99l4,4-.65,16.17-12.17,13.27-10.43,3.91-7.82-3.91-19.56,3.91s-26.08-13.04-26.08-14.34v-7.5l4.69-2.5.99-8.01,11-6v-8.01l7-7v-9l14-14-1-11,18.01-12.01-2-16,11-4,4.99-13v-16l9-6h3.01l.99,3.99,8.01-1.99,8.01-18.01,9-4v-10l1.99-9-9-7-1-8.01h-4v-25l-10.99-5.01-1-12,8.01-14-1-3-20,3.99,1-7,3.99-7-4.99-6v-9l3-3-12.01-15.01,2.01-13-9.01-13,7-10-1.99-7v-5.65l11.71-2.13,5.22,5.22,13.04-1.3,10.43-2.61,2.61-13.04h6.52l10.43,9.13,9.13-2.61,18.25-2.61,10.43,2.61,5.22-3.91,14.1-1,6.95,56.9v30l7,11Z" fill="#ccc" stroke="#262626" stroke-miterlimit="10" stroke-width="2"/>
  <path id="ระนอง" data-name="ระนอง" d="M353.58,2294.42l3.91,5.22v7.82l-7.82,9.13v9.13l-6.52,13.04,1.3,9.13-3.91,13.04-5.22,5.22v2.61h7.82l5.22,3.91v6.52l-14.34,7.82-2.61,7.82h-6.52l-9.13,2.61-9.13,19.56-16.95,18.25,5.22,11.74-1.3,11.74,7.43,4.19,12.75,7.17.68.38,3.91,13.04-7.82,7.82-1.3,6.52-9.13,6.52-7.82,6.52v6.52l5.22,3.91v7.82h-10.43l-5.22-5.22h-7.82l-8.21,11.29-2.22,3.05-10.8-1.2-.94-.1,1.3-6.52-5.22-2.61-7.85.87,4.59-10,6.39-13.9-2-14,7-9.01,6.99,9.01,11-6.01,3-10.99-17-7,11.21-13.61,2.79-3.39v-9.01l-6-7,6-4.99-.99-5.01-3.01-9,14-16-4-14,17.02-28.01-1-10,10-9.01,14-42s12-19.01,13-19.01,0-11,0-11l-4-6,1-7-7-7,1.99-13,16.01-21.01,5.2-.43,4.65,7.5-2.61,9.13,6.52,3.91,5.22,15.65-1.3,7.82,3.91,9.13-16.95,16.95,1.3,10.43,6.52,2.61Z" fill="#e6e6e6" stroke="#262626" stroke-miterlimit="10" stroke-width="2"/>
  <path id="ชุมพร" data-name="ชุมพร" d="M482.13,2186.74l-3,6-7.99-1-5.01,5.01-4.99,23-9.01,16h-9l-6,8.01-4,21.01-16.01,9,9.01,9.01v4.99l7,7s0,10-1,10h-11l-4-4-13,1v11l-3,4,5.01,7.99h6l8.01,9.01-16.01,25v10l8.01,6.01-6,14.99,2,32.01-4,3v15.01l3.09,9.81h-23.64l-7.82,1.3-9.13,5.22-9.13-2.61-7.82-9.13h-9.13l-5.22,6.52h-9.13l-6.52,5.22v10.43l-5.89,3.53-12.75-7.17-7.43-4.19,1.3-11.74-5.22-11.74,16.95-18.25,9.13-19.56,9.13-2.61h6.52l2.61-7.82,14.34-7.82v-6.52l-5.22-3.91h-7.82v-2.61l5.22-5.22,3.91-13.04-1.3-9.13,6.52-13.04v-9.13l7.82-9.13v-7.82l-3.91-5.22-6.52-2.61-1.3-10.43,16.95-16.95-3.91-9.13,1.3-7.82-5.22-15.65-6.52-3.91,2.61-9.13-4.65-7.5,6.79-.56,2.01-9.01,7,3,13-10-5.01-10,7-16,7,7,8.01-5.01,2-10,10.31-5.49v7.5c0,1.3,26.08,14.34,26.08,14.34l19.56-3.91,7.82,3.91,10.43-3.91,12.17-13.27-.35,8.84-3,9,4.99,9.01Z" fill="#e6e6e6" stroke="#262626" stroke-miterlimit="10" stroke-width="2"/>
  <path id="พังงา" data-name="พังงา" d="M307.94,2688.2l-5.22,23.47-1.84,1.54-5.98,4.98,3.91,7.82-3.79,6.82h-7.93l-7,11-2.05.61-27.96,8.38,5.01,6-1,8.01,4,8.01-8.01,12-7-1.99-7,4-4.99-11-14-5.01v-17.99l-15.01-52.01,9.01,7,2-3-7-11v-19.01l10-43-4.99-11,6-22,15.01,10.99h6.99v-7.99l-10.99-8.01s7.99-13,7-15.01c-1-1.99-8.01-13-8.01-13l2-9,10-4-4.99-13,6.02-13.1,7.85-.87,5.22,2.61-1.3,6.52.94.1,10.8,1.2,2.22-3.05,3,5.66-1.3,11.74-7.82,11.74-2.61,14.34,3.91,10.43-5.22,5.22,5.22,14.34-11.74,6.52,2.61,15.65,18.25,6.52,3.91,10.43,10.43,2.61-3.91,19.56-10.43,10.43,6.52,6.52h7.82l9.13-5.22h7.82l6.52,6.52Z" fill="#e6e6e6" stroke="#262626" stroke-miterlimit="10" stroke-width="2"/>
  <path id="กระบี่" data-name="กระบี่" d="M463.1,2826.41l-6.52,14.34-1.63.59-14.81,5.28-1.81.65,3.91,7.82-7.82,7.82,5.22,10.43v18.25l-6.58,5.76-3.92-5.5-7.75-1.55-2.26-.46-13-12-1-11-4,2s-4.99,15.01-6,16.01c-1,.99-12.01,0-13-1-1-1-5.01-16-4-17,.08-.08.2-.27.37-.53l-4.37-10.47v-7c0-1,5.01,0,5.01,0v8.01l3.06,2.29c2.78-5.65,5.93-12.3,5.93-12.3l4-13.01-4-2-6,12.01-10-8.01-9.01-1,2.01-18.01-13.01-3.99-12,7.99-7-7-8.01-.99-4.99-7v-28.01l-7-7-7-20-6,9-7-1v-13l9-7-7-6h-.08l3.79-6.82-3.91-7.82,5.98-4.98,1.84-1.54,5.22-23.47-1.37-1.37,5.28-3.85,5.22-3.91,9.13,3.91,9.13-6.52,14.34,2.61,2.61,15.65,6.52,3.91v32.6l24.77,16.95h22.17l18.25,11.74,8.54-2.14,1.89-.47,11.74,10.43-7.82,9.13,2.61,6.52-6.52,5.22,1.3,10.43s19.56-1.3,20.86,0,6.52,27.38,6.52,27.38Z" fill="#e6e6e6" stroke="#262626" stroke-miterlimit="10" stroke-width="2"/>
  <path id="สุราษร์ธานี" data-name="สุราษร์ธานี" d="M536.12,2564.33l-7.82,6.52,2.61,9.13,10.43,2.61v10.43l-9.13,3.91-1.3,14.34-10.43,10.43-19.56,2.61-6.52,9.13-3.91,15.65-3.91,19.56-13.04,16.95-1.3,13.04-11.74,5.22-3.91,11.74-23.47,7.82-9.13,18.25,8.54,16.12-8.54,2.14-18.25-11.74h-22.17l-24.77-16.95v-32.6l-6.52-3.91-2.61-15.65-14.34-2.61-9.13,6.52-9.13-3.91-5.22,3.91-5.28,3.85-5.15-5.15h-7.82l-9.13,5.22h-7.82l-6.52-6.52,10.43-10.43,3.91-19.56-10.43-2.61-3.91-10.43-18.25-6.52-2.61-15.65,11.74-6.52-5.22-14.34,5.22-5.22-3.91-10.43,2.61-14.34,7.82-11.74,1.3-11.74-3-5.66,8.21-11.29h7.82l5.22,5.22h10.43v-7.82l-5.22-3.91v-6.52l7.82-6.52,9.13-6.52,1.3-6.52,7.82-7.82-3.91-13.04-.68-.38,5.89-3.53v-10.43l6.52-5.22h9.13l5.22-6.52h9.13l7.82,9.13,9.13,2.61,9.13-5.22,7.82-1.3h23.64l2.91,9.19,12.01,20,1,18.01,16,18.01s-14,7-15.01,10c-.99,3-6,12-6,12l7,13,5.01,4,19,3,1,8.01,11-8.01s7.99,3.01,10,4c2,1,13-7,13-7l3-10.99,7-1,4.99,4,4-1.15,3-.86,12.01-9h20l3.19,1.92v9.36l-5.22,3.91v14.34Z" fill="#e6e6e6" stroke="#262626" stroke-miterlimit="10" stroke-width="2"/>
  <path id="ตรัง" data-name="ตรัง" d="M575.24,2994.62l5.22,13.04-9.13-3.91s-4.2,4.2-9.88,8.62c-5.28,4.09-11.84,8.38-17.5,9.64-6.72,1.49-12.58,0-16.36-1.55l6.56-6.56-14.99-2.01-1.56-2.67-8.44-14.33-1,9.01-7,4-15.01-23.01s-4-7.99-4.99-7.99-16.01-2.01-16.01-2.01c0,0-13.99-14.99-14.99-16-1-1-3-22.01-3-22.01l-10-13v-11l-3.01-14-1.07-1.49,6.58-5.76v-18.25l-5.22-10.43,7.82-7.82-3.91-7.82,1.81-.65,14.81-5.28,5.54,3.33,2.61,10.43h24.77s2.61-7.82,3.91-10.43,18.25-18.25,18.25-18.25l10.43,1.3,9.13-1.3,6.52,6.52-3.91,6.52v18.25l1.49,3.62,7.64,18.54v11.74l7.82,2.61,2.61,7.82-6.52,5.22,1.3,13.04,9.13,7.82v9.13l11.74,33.9,7.82,5.22,5.22,9.13-5.22,9.13Z" fill="#e6e6e6" stroke="#262626" stroke-miterlimit="10" stroke-width="2"/>
  <path d="M662.16,2842.8l-15.2,4.47-15.65,10.43h-19.56l-7.82,5.22-26.08-7.82h-9.13l-18.25-3.91-9.13,9.13-7.64,1.02-1.49-3.62v-18.25l3.91-6.52-6.52-6.52-9.13,1.3-10.43-1.3s-16.95,15.65-18.25,18.25-3.91,10.43-3.91,10.43h-24.77l-2.61-10.43-5.54-3.33,1.63-.59,6.52-14.34s-5.22-26.08-6.52-27.38-20.86,0-20.86,0l-1.3-10.43,6.52-5.22-2.61-6.52,7.82-9.13-11.74-10.43-1.89.47-8.54-16.12,9.13-18.25,23.47-7.82,3.91-11.74,11.74-5.22,1.3-13.04,13.04-16.95,3.91-19.56,3.91-15.65,6.52-9.13,19.56-2.61,10.43-10.43,1.3-14.34,9.13-3.91v-10.43l-10.43-2.61-2.61-9.13,7.82-6.52v-14.34l5.22-3.91v-9.36l1.81,1.08h9l9,17,1,17,9,17-.99,40,3,4,4,32.01.99,22,16.01,15.01,12,27,13,8.01h8.01l3-18.01,8.01,10,11,38.01,7,40,4.56,27.39,1.42,8.57Z" fill="#e6e6e6" stroke="#262626" stroke-miterlimit="10" stroke-width="2"/>
  <path id="สตูล" data-name="สตูล" d="M632.61,3089.8l5.22,7.82v6.94c-2.58-2.57-5.66-5.66-5.66-5.66l-5.28,4.62-2.73,2.39,3,3v8.01l-3,4,4,10.99-5.01,1-.99,22.01-4,16-7-26,3-6.01-2.01-.99h-6l-4.99,3-8.01-4-3-7v-8.01l-9-7-6.01-.99-4-13.01-10-.99-19-19.01-4-9-9-2-6.01-11-4.99-29.01,9.44-9.44c3.78,1.55,9.65,3.04,16.36,1.55,5.66-1.25,12.22-5.54,17.5-9.64,5.69-4.42,9.88-8.62,9.88-8.62l9.13,3.91,5.98,11.97,1.84,3.68,6.52,3.91,7.97-4.55,1.16-.67v16.95l5.22,9.13v6.52l10.43,11.74h14.34c1.3,0,6.52,9.13,6.52,9.13l-7.82,14.34Z" fill="#e6e6e6" stroke="#262626" stroke-miterlimit="10" stroke-width="2"/>
  <path id="พัทลุง" data-name="พัทลุง" d="M683.46,2981.58l-3.91,10.43-6.52-10.43-3.91,2.61-9.13,16.95-23.47,6.52-13.04,7.82-9.13-1.3-9.13,3.91-2.46,4.58-7.97,4.55-6.52-3.91-1.84-3.68-5.98-11.97-5.22-13.04,5.22-9.13-5.22-9.13-7.82-5.22-11.74-33.9v-9.13l-9.13-7.82-1.3-13.04,6.52-5.22-2.61-7.82-7.82-2.61v-11.74l-7.64-18.54,7.64-1.02,9.13-9.13,18.25,3.91h9.13l26.08,7.82,7.82-5.22h16.95l5.22,9.13v7.82l6.52,10.43,2.61,24.77s-3.91,15.65-2.61,16.95,6.52,13.04,7.82,13.04h10.43l10.43-6.52,6.52,6.52-2.61,14.34,5.22,3.91,5.22,23.47Z" fill="#e6e6e6" stroke="#262626" stroke-miterlimit="10" stroke-width="2"/>
  <path id="สงขลา" data-name="สงขลา" d="M833.41,3134.13l-.43,1.06-4.79,11.98-9.13,7.82,1.3,9.13-15.65-1.3-10.43,7.82-1.3,9.13,3.91,7.82v8.76l-5.71,8.57h-9l-5.01-4.99-4.99,4.99-8.01-43-8.01-5.01h-4.99l-2.57-7.69-.43-1.3-7,7.99-10,5.01-5.01-1-14-9-13-1-4-6h-20l-6-2.01-15.01-16,5.01-3-1-11.01-5.01-.99-2-9.01h-8.01s-.99,7-2,6c-.38-.38-1.76-1.76-3.34-3.34v-6.94l-5.22-7.82,7.82-14.34s-5.22-9.13-6.52-9.13h-14.34l-10.43-11.74v-6.52l-5.22-9.13v-16.95l-1.16.67,2.46-4.58,9.13-3.91,9.13,1.3,13.04-7.82,23.47-6.52,9.13-16.95,3.91-2.61,6.52,10.43,3.91-10.43-5.22-23.47-5.22-3.91,2.61-14.34-6.52-6.52-10.43,6.52h-10.43c-1.3,0-6.52-11.74-7.82-13.04s2.61-16.95,2.61-16.95l-2.61-24.77-6.52-10.43v-7.82l-5.22-9.13h2.61l15.65-10.43,15.2-4.47,2.01,12.05,18.01,69.02,12,35.01,10.01,23,4.99,6h4l8.01,8.01,10.99,19.01,15.01,22,17,14h10l14,11.01s8.58,4.51,14.51,7.78c.2.12.39.22.59.34.44.23.86.47,1.25.69.6.34,1.15.65,1.63.93,1.11.63,1.85,1.1,2.02,1.26.61.6,12.92.47,22.54.29l-10.37,11.4v10.43l-6.52,10.43,10.43,9.13v9.13l9.13,10.43Z" fill="#currentColor" stroke="#262626" stroke-miterlimit="10" stroke-width="2"/>
  <path id="นราธิวาส" data-name="นราธิวาส" d="M1037.24,3211.92l1,10-2,13s-6.01,9.01-8.01,9.01-16,10-17,12c-1,2.01-7,19.01-7,19.01l4.99,7.99s-3,9.01-6,9.01-7.99-1-7.99,0-1,10.99-2.01,10.99-10-.99-9,0c.99,1-1,12.01-1,12.01l-15.01-14-7,1-3,3-.99,4.99s-4,1-4,0,1-6,0-6-6-8.01-6-8.01l-1-12-8.01-1v-7l-3.51-2.19-4.49-2.8-13.01,6-1.66,1.89v-18.22l-10.43-20.86-14.34-7.82v-19.56l7.82-10.43-1.3-18.25,3.91-16.95,26.08-5.22,11.74-9.13-2.28-5.32,3.59-1.2-2.61-14.34,10.43-1.3s9.13,13.04,10.43,13.04c.6,0,4.76-.27,9.1-.57l5.54,9.23,11,9,6.53,3.26,5.46,2.74,8.01,11,14,13h4.99l6.01,6,10.99,8.01-3,7Z" fill="#e6e6e6" stroke="#262626" stroke-miterlimit="10" stroke-width="2"/>
  <path id="ปัตตานี" data-name="ปัตตานี" d="M967.69,3142.69c-4.34.3-8.5.57-9.1.57-1.3,0-10.43-13.04-10.43-13.04l-10.43,1.3,2.61,14.34-3.59,1.2-4.24,1.41-7.82-2.61-3.91-9.13-11.74,5.22-10.43-1.3-15.65,7.82-9.13-9.13v-18.25l-16.95,18.25-23.9-4.16.43-1.06-9.13-10.43v-9.13l-10.43-9.13,6.52-10.43v-10.43l10.37-11.4c6.3-.13,11.46-.29,11.46-.29l14-10h9.01l12,6,4-6h10l4,3,17.99,2,13.01,5.01,16,29,4.88,7.69,14.12,22.31,6.47,10.78Z" fill="#e6e6e6" stroke="#262626" stroke-miterlimit="10" stroke-width="2"/>
  <path id="ยะลา" data-name="ยะลา" d="M901.21,3166.73l-3.91,16.95,1.3,18.25-7.82,10.43v19.56l14.34,7.82,10.43,20.86v18.22l-5.35,6.12-22,.99-10,14-18.01-.99v6c0,1-1.99,2-1.99,2v18.01h-5.01l-1.99,2-1,5.01h-6l-2.01,3h-1.99l-6,7-2.01-10-14-20-7.99.99-9.01-10v-6l7-4,1-14.99,14-1,7.99-15.01-4.99-3.99v-16.01h3l1-9-12.01-6-.99-4,7.99-5.01,6-3-3-13-7.99-2h-5.01l-7,4.99-11-9-.29.43v-8.76l-3.91-7.82,1.3-9.13,10.43-7.82,15.65,1.3-1.3-9.13,9.13-7.82,4.79-11.98,23.9,4.16,16.95-18.25v18.25l9.13,9.13,15.65-7.82,10.43,1.3,11.74-5.22,3.91,9.13,7.82,2.61,4.24-1.41,2.28,5.32-11.74,9.13-26.08,5.22Z" fill="#e6e6e6" stroke="#262626" stroke-miterlimit="10" stroke-width="2"/>
  <path d="M1109.84,1934.55l14.34,2.61,9.13,9.13,13.04,22.17v6.52l-7.82-7.82-3.91,1.3,5.22,7.82s-6.52,2.61-9.13,2.61-14.34-7.82-14.34-7.82l-1.3-18.25-5.22-7.82v-10.43Z" fill="#b3b3b3" stroke="#262626" stroke-miterlimit="10" stroke-width="2"/>
</svg>